<?xml version="1.0" encoding="UTF-8" standalone="no"?>
<!-- Created with Inkscape (http://www.inkscape.org/) -->

<svg
   xmlns:dc="http://purl.org/dc/elements/1.1/"
   xmlns:cc="http://creativecommons.org/ns#"
   xmlns:rdf="http://www.w3.org/1999/02/22-rdf-syntax-ns#"
   xmlns:svg="http://www.w3.org/2000/svg"
   xmlns="http://www.w3.org/2000/svg"
   xmlns:sodipodi="http://sodipodi.sourceforge.net/DTD/sodipodi-0.dtd"
   xmlns:inkscape="http://www.inkscape.org/namespaces/inkscape"
   width="96.42086mm"
   height="99.174927mm"
   viewBox="0 0 96.420859 99.174926"
   version="1.1"
   id="svg8"
   inkscape:version="0.92.3 (2405546, 2018-03-11)"
   sodipodi:docname="JL-logo.svg">
  <defs
     id="defs2">
    <inkscape:path-effect
       effect="copy_rotate"
       starting_point="162.22379,82.748992"
       origin="130,82.748992"
       id="path-effect2627"
       is_visible="true"
       copies_to_360="true"
       fuse_paths="false"
       starting_angle="0"
       rotation_angle="180"
       num_copies="2" />
    <inkscape:path-effect
       effect="copy_rotate"
       starting_point="144.86195,82.176038"
       origin="113.76286,82.176038"
       id="path-effect1483"
       is_visible="true"
       copies_to_360="true"
       fuse_paths="false"
       starting_angle="0"
       rotation_angle="90"
       num_copies="4" />
    <inkscape:path-effect
       effect="copy_rotate"
       starting_point="158.8799,83.477755"
       origin="129.93006,83.477755"
       id="path-effect1450"
       is_visible="true"
       copies_to_360="true"
       fuse_paths="false"
       starting_angle="0"
       rotation_angle="180"
       num_copies="2" />
    <inkscape:path-effect
       effect="copy_rotate"
       starting_point="132.10398,97.847638"
       origin="103.15,97.847638"
       id="path-effect1448"
       is_visible="true"
       copies_to_360="true"
       fuse_paths="false"
       starting_angle="0"
       rotation_angle="180"
       num_copies="2" />
    <inkscape:path-effect
       effect="mirror_symmetry"
       start_point="87.537446,35.786136"
       end_point="87.537446,86.204123"
       center_point="87.537446,60.995129"
       id="path-effect1446"
       is_visible="true"
       mode="free"
       discard_orig_path="false"
       fuse_paths="false"
       oposite_fuse="false" />
  </defs>
  <sodipodi:namedview
     id="base"
     pagecolor="#607d8b"
     bordercolor="#666666"
     borderopacity="1.0"
     inkscape:pageopacity="1"
     inkscape:pageshadow="2"
     inkscape:zoom="1.4"
     inkscape:cx="235.96894"
     inkscape:cy="225.22713"
     inkscape:document-units="mm"
     inkscape:current-layer="g2625"
     showgrid="false"
     inkscape:window-width="1247"
     inkscape:window-height="1023"
     inkscape:window-x="2465"
     inkscape:window-y="27"
     inkscape:window-maximized="0"
     inkscape:snap-global="false"
     inkscape:snap-bbox="false"
     inkscape:snap-bbox-midpoints="false"
     inkscape:snap-object-midpoints="false"
     inkscape:snap-others="false"
     inkscape:object-nodes="false"
     inkscape:snap-nodes="false"
     fit-margin-top="22.5"
     fit-margin-left="0"
     fit-margin-right="0"
     fit-margin-bottom="22.5" />
  <metadata
     id="metadata5">
    <rdf:RDF>
      <cc:Work
         rdf:about="">
        <dc:format>image/svg+xml</dc:format>
        <dc:type
           rdf:resource="http://purl.org/dc/dcmitype/StillImage" />
        <dc:title></dc:title>
      </cc:Work>
    </rdf:RDF>
  </metadata>
  <g
     inkscape:label="Layer 1"
     inkscape:groupmode="layer"
     id="layer1"
     transform="translate(-81.78957,-33.161529)">
    <g
       id="g1481">
      <g
         id="g2625"
         inkscape:path-effect="#path-effect2627">
        <path
           style="color:#000000;font-style:normal;font-variant:normal;font-weight:normal;font-stretch:normal;font-size:medium;line-height:normal;font-family:sans-serif;font-variant-ligatures:normal;font-variant-position:normal;font-variant-caps:normal;font-variant-numeric:normal;font-variant-alternates:normal;font-feature-settings:normal;text-indent:0;text-align:start;text-decoration:none;text-decoration-line:none;text-decoration-style:solid;text-decoration-color:#000000;letter-spacing:normal;word-spacing:normal;text-transform:none;writing-mode:lr-tb;direction:ltr;text-orientation:mixed;dominant-baseline:auto;baseline-shift:baseline;text-anchor:start;white-space:normal;shape-padding:0;clip-rule:nonzero;display:inline;overflow:visible;visibility:visible;opacity:1;isolation:auto;mix-blend-mode:normal;color-interpolation:sRGB;color-interpolation-filters:linearRGB;solid-color:#000000;solid-opacity:1;vector-effect:none;fill:#cfd8dc;fill-opacity:1;fill-rule:nonzero;stroke:none;stroke-width:1.74035609;stroke-linecap:round;stroke-linejoin:miter;stroke-miterlimit:4;stroke-dasharray:none;stroke-dashoffset:0;stroke-opacity:1;paint-order:normal;color-rendering:auto;image-rendering:auto;shape-rendering:auto;text-rendering:auto;enable-background:accumulate"
           d="m 162.60977,55.665967 c -1.11142,-0.0085 -2.2964,0.06414 -3.46204,0.495326 -0.93077,0.344307 -2.04577,1.034721 -3.06955,1.699538 -1.02379,0.664816 -1.95791,1.323862 -2.19329,1.475486 l -0.0813,0.05352 -0.0677,0.06769 c -0.36497,0.370928 -0.79291,0.75301 -1.20579,1.227298 -0.43494,0.499639 -0.80714,1.015877 -1.168,1.499099 -0.901,1.206502 -1.50903,2.078269 -2.27253,3.443152 -0.71535,1.278841 -1.52692,3.039113 -2.12402,4.291605 l -0.004,0.0079 -0.004,0.01 c -1.08327,2.421982 -2.01444,4.91264 -2.85967,7.422557 -0.71321,2.117892 -0.89582,2.891583 -1.59407,4.954316 -0.26912,0.79501 -0.56595,1.593196 -0.85475,2.407373 -2.2e-4,5.96e-4 2e-4,0.0015 0,0.0021 -1.05566,2.635369 -2.00764,5.286767 -3.22697,7.740006 -0.63271,1.272969 -0.76016,1.423774 -1.4991,2.63195 -0.3007,0.471183 -0.69222,0.860108 -1.02739,1.300756 -2.54157,0.395689 -5.08169,0.81445 -7.59518,1.473388 l -0.008,0.0021 -0.008,0.0021 c -2.19616,0.621429 -4.4625,1.222545 -6.6654,2.137673 -2.32557,0.96611 -4.47319,2.35471 -6.43557,3.91277 l -0.0456,0.0362 -0.0399,0.0394 c -0.36251,0.37499 -0.84088,0.8484 -1.1423,1.51536 -0.30142,0.66695 -0.28911,1.66538 0.32375,2.4016 l 0.0892,0.10494 0.11701,0.0735 c 0.23826,0.15004 0.5555,0.36272 1.01112,0.44601 0.50213,0.0918 0.96472,0.0797 1.38209,0.0414 -0.10136,-0.0109 -0.20278,-0.0223 -0.30748,-0.0414 -0.45562,-0.0833 -0.77286,-0.29597 -1.01112,-0.44601 l -0.11701,-0.0735 -0.0892,-0.10494 c -0.61286,-0.73622 -0.62517,-1.73465 -0.32375,-2.4016 0.30142,-0.66696 0.77979,-1.14037 1.1423,-1.51536 l 0.0399,-0.0394 0.0457,-0.0362 c 1.96237,-1.55806 4.10999,-2.94666 6.43557,-3.91277 2.2029,-0.915128 4.46924,-1.516244 6.6654,-2.137673 l 0.008,-0.0021 0.008,-0.0021 c 2.51349,-0.658938 5.05361,-1.077699 7.59518,-1.473388 0.33517,-0.440648 0.72669,-0.829573 1.02738,-1.300756 0.73894,-1.208176 0.8664,-1.358981 1.4991,-2.63195 1.21934,-2.453239 2.17132,-5.104637 3.22697,-7.740006 2e-4,-6.07e-4 -2.1e-4,-0.0015 0,-0.0021 0.28881,-0.814177 0.58564,-1.612363 0.85476,-2.407373 0.69825,-2.062733 0.88085,-2.836424 1.59407,-4.954316 0.84523,-2.509917 1.77639,-5.000575 2.85967,-7.422557 l 0.004,-0.01 0.004,-0.0079 c 0.59711,-1.252492 1.40868,-3.012764 2.12403,-4.291605 0.76349,-1.364883 1.37153,-2.23665 2.27253,-3.443152 0.36086,-0.483222 0.73305,-0.99946 1.168,-1.499099 0.41287,-0.474288 0.84082,-0.85637 1.20579,-1.227298 l 0.0677,-0.06769 0.0813,-0.05352 c 0.23539,-0.151624 1.16951,-0.81067 2.19329,-1.475486 1.02379,-0.664817 2.13931,-1.355231 3.07008,-1.699538 0.92959,-0.343871 1.87028,-0.457935 2.7773,-0.486407 -0.1312,-0.0029 -0.25691,-0.0079 -0.39039,-0.0089 z M 97.39023,109.83202 c 1.11142,0.008 2.2964,-0.0641 3.46204,-0.49533 0.93077,-0.34431 2.04577,-1.03472 3.06955,-1.69954 1.02379,-0.66481 1.95791,-1.32386 2.19329,-1.47548 l 0.0813,-0.0535 0.0677,-0.0677 c 0.36497,-0.37093 0.79291,-0.75301 1.20579,-1.2273 0.43494,-0.49964 0.80714,-1.01588 1.168,-1.4991 0.901,-1.2065 1.50903,-2.07827 2.27253,-3.443152 0.71535,-1.278841 1.52692,-3.039113 2.12402,-4.291605 l 0.004,-0.0079 0.004,-0.01 c 1.08327,-2.421982 2.01444,-4.91264 2.85967,-7.422557 0.71321,-2.117892 0.89582,-2.891583 1.59407,-4.954316 0.26912,-0.79501 0.56595,-1.593196 0.85475,-2.407373 2.2e-4,-5.96e-4 -2e-4,-0.0015 0,-0.0021 1.05566,-2.635369 2.00764,-5.286767 3.22697,-7.740006 0.63271,-1.272969 0.76016,-1.423774 1.4991,-2.63195 0.3007,-0.471183 0.69222,-0.860108 1.02739,-1.300756 2.54157,-0.395689 5.08169,-0.81445 7.59518,-1.473388 l 0.008,-0.0021 0.008,-0.0021 c 2.19616,-0.621429 4.4625,-1.222545 6.6654,-2.137673 2.32557,-0.96611 4.47319,-2.35471 6.43557,-3.91277 l 0.0456,-0.0362 0.0399,-0.0394 c 0.36251,-0.37499 0.84088,-0.8484 1.1423,-1.51536 0.30142,-0.66695 0.28911,-1.66538 -0.32375,-2.4016 l -0.0892,-0.10494 -0.11701,-0.0735 c -0.23826,-0.15004 -0.5555,-0.36272 -1.01112,-0.44601 -0.50213,-0.0918 -0.96472,-0.0797 -1.38209,-0.0414 0.10136,0.0109 0.20278,0.0223 0.30748,0.0414 0.45562,0.0833 0.77286,0.29597 1.01112,0.44601 l 0.11701,0.0735 0.0892,0.10494 c 0.61286,0.73622 0.62517,1.73465 0.32375,2.4016 -0.30142,0.66696 -0.77979,1.14037 -1.1423,1.51536 l -0.0399,0.0394 -0.0457,0.0362 c -1.96237,1.55806 -4.10999,2.94666 -6.43557,3.91277 -2.2029,0.915128 -4.46924,1.516244 -6.6654,2.137673 l -0.008,0.0021 -0.008,0.0021 c -2.51349,0.658938 -5.05361,1.077699 -7.59518,1.473388 -0.33517,0.440648 -0.72669,0.829573 -1.02738,1.300756 -0.73894,1.208176 -0.8664,1.358981 -1.4991,2.63195 -1.21934,2.453239 -2.17132,5.104637 -3.22697,7.740006 -2e-4,6.07e-4 2.1e-4,0.0015 0,0.0021 -0.28881,0.814177 -0.58564,1.612363 -0.85476,2.407373 -0.69825,2.062733 -0.88085,2.836424 -1.59407,4.954316 -0.84523,2.509917 -1.77639,5.000575 -2.85967,7.422557 l -0.004,0.01 -0.004,0.0079 c -0.59711,1.252492 -1.40868,3.012764 -2.12403,4.291605 -0.76349,1.364882 -1.37153,2.236652 -2.27253,3.443152 -0.36086,0.48322 -0.73305,0.99946 -1.168,1.4991 -0.41287,0.47429 -0.84082,0.85637 -1.20579,1.2273 l -0.0677,0.0677 -0.0813,0.0535 c -0.23539,0.15162 -1.16951,0.81067 -2.19329,1.47548 -1.02379,0.66482 -2.13931,1.35523 -3.07008,1.69954 -0.92959,0.34387 -1.87028,0.45794 -2.7773,0.48641 0.1312,0.003 0.25691,0.008 0.39039,0.009 z m 66.27474,-52.419817 c -0.20161,-5.37e-4 -0.40049,0.003 -0.59765,0.0094 0.18548,0.0037 0.36908,0.0054 0.55672,0.01102 1.54609,0.119475 2.25546,0.200132 3.37546,1.18952 0.18795,0.198808 0.34817,0.349014 0.414,0.440232 0.31826,0.441008 0.35193,1.1682 0.40088,1.906272 l -0.33634,0.184699 c 0.0393,0.181466 0.0667,0.363206 0.084,0.543077 l 1.32699,-0.727776 c -0.0489,-0.738072 -0.0821,-1.465264 -0.40035,-1.906272 -0.0658,-0.09122 -0.22657,-0.241424 -0.41452,-0.440232 -1.12,-0.989388 -1.82937,-1.070045 -3.37546,-1.18952 -0.3484,-0.01041 -0.6939,-0.01956 -1.03368,-0.02046 z M 96.33503,108.08578 c 0.20161,5.4e-4 0.40049,-0.003 0.59765,-0.009 -0.18548,-0.004 -0.36908,-0.005 -0.55672,-0.011 -1.54609,-0.11947 -2.25546,-0.20013 -3.37546,-1.18952 -0.18795,-0.19881 -0.34817,-0.34901 -0.414,-0.44023 -0.31826,-0.44101 -0.35193,-1.1682 -0.40088,-1.90627 l 0.33634,-0.1847 c -0.0393,-0.18147 -0.0667,-0.36321 -0.084,-0.54308 l -1.32699,0.72778 c 0.0489,0.73807 0.0821,1.46526 0.40035,1.90627 0.0658,0.0912 0.22657,0.24142 0.41452,0.44023 1.12,0.98939 1.82937,1.07005 3.37546,1.18952 0.3484,0.0104 0.6939,0.0196 1.03368,0.0205 z m 64.60984,-50.272697 c -0.0535,-0.002 -0.10521,0.0015 -0.15794,0.0016 -0.0685,0.03538 -0.17212,0.103778 -0.2314,0.129603 0.25168,-0.03429 0.50168,-0.07305 0.75558,-0.10022 -0.11138,-0.0098 -0.22355,-0.02039 -0.33266,-0.02886 h -0.0157 z M 99.05513,107.6849 c 0.0535,0.002 0.10521,-0.001 0.15794,-0.002 0.0685,-0.0354 0.17212,-0.10378 0.2314,-0.1296 -0.25168,0.0343 -0.50168,0.073 -0.75558,0.10022 0.11138,0.01 0.22355,0.0204 0.33266,0.0289 h 0.0157 z m 62.4475,-48.132928 c -0.13346,0.0036 -0.26518,0.01182 -0.39615,0.02309 1.19684,0.103608 2.17855,0.278828 2.98403,0.977012 0.1725,0.176348 0.31164,0.304385 0.35103,0.358902 0.33296,0.460881 0.36046,1.291093 0.30695,2.205358 l -0.002,0.02571 v 0.02571 1.469714 l 1.07461,-0.58925 v -0.880464 -0.02571 l 0.002,-0.02571 c 0.0535,-0.914265 0.026,-1.744477 -0.30696,-2.205358 -0.0394,-0.05452 -0.17852,-0.182554 -0.35103,-0.358902 -0.85861,-0.744238 -1.91398,-0.895135 -3.22067,-0.997475 -0.14942,-0.0055 -0.2965,-0.0065 -0.44181,-0.0026 z M 98.49737,105.94601 c 0.13346,-0.004 0.26518,-0.0118 0.39615,-0.0231 -1.19684,-0.10361 -2.17855,-0.27883 -2.98403,-0.97701 -0.1725,-0.17635 -0.31164,-0.30439 -0.35103,-0.3589 -0.33296,-0.46088 -0.36046,-1.2911 -0.30695,-2.20536 l 0.002,-0.0257 v -0.0257 -1.46971 l -1.07461,0.58925 v 0.88046 0.0257 l -0.002,0.0257 c -0.0535,0.91427 -0.026,1.74448 0.30696,2.20536 0.0394,0.0545 0.17852,0.18255 0.35103,0.3589 0.85861,0.74424 1.91398,0.89514 3.22067,0.99748 0.14942,0.006 0.2965,0.007 0.44181,0.003 z m 53.96817,-40.653179 c -0.24064,0.376802 -0.52008,0.710113 -0.78444,1.182699 -0.65212,1.165785 -1.45579,2.904053 -2.06054,4.173022 -1.0535,2.355429 -1.96692,4.792802 -2.79985,7.266194 -0.70079,2.08099 -0.88355,2.857453 -1.5946,4.957988 -0.28007,0.827375 -0.57923,1.63203 -0.86262,2.430984 l -0.006,0.01627 -0.006,0.01784 c -1.04446,2.604991 -2.00994,5.312606 -3.29623,7.900567 -0.29542,0.594352 -0.51405,0.905335 -0.71413,1.253532 0.18988,-0.274957 0.43294,-0.504695 0.60919,-0.791263 0.71758,-1.233786 0.79837,-1.308667 1.41199,-2.621977 1.1428,-2.445879 2.01879,-5.083785 3.04227,-7.696456 0.29091,-0.821241 0.58963,-1.621778 0.85633,-2.41944 0.26016,-0.778097 0.49369,-1.587579 0.75559,-2.407373 1.07366,-3.360799 2.22211,-6.730814 3.74433,-9.95376 l 0.002,-0.0058 0.004,-0.0063 c 0.53932,-1.096535 1.10669,-2.198711 1.69849,-3.296758 z m -44.93108,34.912319 c 0.24064,-0.376799 0.52008,-0.71011 0.78444,-1.182696 0.65212,-1.165785 1.45579,-2.904053 2.06054,-4.173022 1.0535,-2.355429 1.96692,-4.792802 2.79985,-7.266194 0.70079,-2.08099 0.88355,-2.857453 1.5946,-4.957988 0.28007,-0.827375 0.57923,-1.63203 0.86262,-2.430984 l 0.006,-0.01627 0.006,-0.01784 c 1.04446,-2.604991 2.00994,-5.312606 3.29623,-7.900567 0.29542,-0.594352 0.51405,-0.905335 0.71413,-1.253532 -0.18988,0.274957 -0.43294,0.504695 -0.60919,0.791263 -0.71758,1.233786 -0.79837,1.308667 -1.41199,2.621977 -1.1428,2.445879 -2.01879,5.083785 -3.04227,7.696456 -0.29091,0.821241 -0.58963,1.621778 -0.85633,2.41944 -0.26016,0.778097 -0.49369,1.587579 -0.75559,2.407373 -1.07366,3.360799 -2.22211,6.730814 -3.74433,9.95376 l -0.002,0.0058 -0.004,0.0063 c -0.53932,1.096535 -1.10669,2.198711 -1.69849,3.296754 z m 44.84398,-5.311295 c -1.80238,0.01101 -3.58784,0.109876 -5.35152,0.184698 l -0.0163,0.0021 h -0.0178 c -1.77854,0.145378 -3.56028,0.345441 -5.34208,0.548324 -0.0339,0.04406 -0.0692,0.08672 -0.10179,0.132225 2.17377,-0.247498 4.34848,-0.503171 6.51848,-0.680549 h 0.0178 l 0.0163,-0.0021 c 1.68496,-0.07148 3.39016,-0.163195 5.11068,-0.181026 -0.27815,-0.0029 -0.55639,-0.0054 -0.83377,-0.0037 z M 107.62156,70.604129 c 1.80238,-0.01101 3.58784,-0.109876 5.35152,-0.184698 l 0.0163,-0.0021 h 0.0178 c 1.77854,-0.145378 3.56028,-0.345441 5.34208,-0.548324 0.0339,-0.04406 0.0692,-0.08672 0.10179,-0.132225 -2.17377,0.247498 -4.34848,0.503171 -6.51848,0.680549 h -0.0178 l -0.0163,0.0021 c -1.68496,0.07148 -3.39016,0.163195 -5.11068,0.181026 0.27815,0.0029 0.55639,0.0054 0.83377,0.0037 z m 68.33947,24.676961 -2.5779,0.03148 c -1.18714,0.01484 -2.36802,0.03373 -3.54337,0.03358 0.32688,-4.35e-4 0.67549,0.0014 0.99433,5.27e-4 h 0.002 0.002 c 1.20041,0.001 2.40676,-0.01895 3.61946,-0.03411 l 1.4865,-0.01837 z m -91.92206,-25.064196 2.5779,-0.03148 c 1.18714,-0.01484 2.36802,-0.03373 3.54337,-0.03358 -0.32688,4.35e-4 -0.67549,-0.0014 -0.99433,-5.27e-4 h -0.002 -0.002 c -1.20041,-0.001 -2.40676,0.01895 -3.61946,0.03411 l -1.4865,0.01837 z m 69.43192,26.418475 c -0.0736,4.81e-4 -0.14772,0.0029 -0.22143,0.0037 0.75763,0.0083 1.51188,0.03395 2.2615,0.08973 4.7447,0.352926 9.90902,0.370998 14.25482,0.3589 0.0116,1.1e-5 0.023,-5.15e-4 0.0346,-5.24e-4 -4.12195,0.0052 -8.83368,-0.03249 -13.21484,-0.358376 -1.0306,-0.07668 -2.06927,-0.100226 -3.11468,-0.0934 z M 106.52911,68.862615 c 0.0736,-4.81e-4 0.14772,-0.0029 0.22143,-0.0037 -0.75763,-0.0083 -1.51188,-0.03395 -2.2615,-0.08973 -4.7447,-0.352926 -9.90902,-0.370998 -14.25482,-0.3589 -0.0116,-1.1e-5 -0.023,5.15e-4 -0.0346,5.24e-4 4.12195,-0.0052 8.83368,0.03249 13.21484,0.358376 1.0306,0.07668 2.06927,0.100226 3.11468,0.0934 z m 44.3707,27.938037 c -0.96233,0.001 -1.92386,0.01606 -2.88539,0.03568 -0.0931,0.01051 -0.18604,0.02161 -0.27967,0.02938 1.23434,-0.03125 2.46806,-0.05345 3.70289,-0.06034 -0.17919,-6.9e-4 -0.3587,-0.0049 -0.53783,-0.0047 z m -41.79962,-28.10332 c 0.96233,-0.001 1.92386,-0.01606 2.88539,-0.03568 0.0931,-0.01051 0.18604,-0.02161 0.27967,-0.02938 -1.23434,0.03125 -2.46806,0.05345 -3.70289,0.06034 0.17919,6.9e-4 0.3587,0.0049 0.53783,0.0047 z m 62.81113,28.380367 c -0.3577,0.0027 -0.71214,0.01026 -1.07094,0.01 -0.005,1.6e-5 -0.0111,-1.3e-5 -0.0163,0 l -0.47381,0.370971 c 0.35329,0.0039 0.70681,0.0076 1.05938,0.01154 z M 88.08868,68.420285 c 0.3577,-0.0027 0.71214,-0.01026 1.07094,-0.01 0.005,-1.6e-5 0.0111,1.3e-5 0.0163,0 l 0.47381,-0.370971 c -0.35329,-0.0039 -0.70681,-0.0076 -1.05938,-0.01154 z m 62.94493,30.079906 c -0.26536,-6.77e-4 -0.53068,9.22e-4 -0.79599,0.0021 1.60686,0.008 3.21489,0.04904 4.82682,0.128029 4.16771,0.204235 7.82933,0.407088 11.98648,0.553571 h 0.0157 0.0157 c 1.17478,-0.0017 2.3554,0.01729 3.54179,0.02991 l 0.30539,0.0021 0.0136,-0.01102 c -0.932,-0.01107 -1.86146,-0.02235 -2.78622,-0.02099 h -0.0157 -0.0157 c -4.15716,-0.146483 -7.81877,-0.349336 -11.98649,-0.553571 -1.70507,-0.08356 -3.40587,-0.125807 -5.10543,-0.130127 z M 108.96639,66.997793 c 0.26536,6.77e-4 0.53068,-9.22e-4 0.79599,-0.0021 -1.60686,-0.008 -3.21489,-0.04904 -4.82682,-0.128029 -4.16771,-0.204235 -7.82933,-0.407088 -11.98648,-0.553571 h -0.0157 -0.0157 c -1.17478,0.0017 -2.3554,-0.01729 -3.54179,-0.02991 l -0.30539,-0.0021 -0.0136,0.01102 c 0.932,0.01107 1.86146,0.02235 2.78622,0.02099 h 0.0157 0.0157 c 4.15716,0.146483 7.81877,0.349336 11.98649,0.553571 1.70507,0.08356 3.40587,0.125807 5.10543,0.130127 z m 24.22758,33.376137 c -0.44291,0.086 -0.8874,0.16259 -1.33224,0.23717 -0.20253,0.19001 -0.40207,0.38318 -0.62073,0.55619 -0.0401,0.0117 -0.11261,0.0216 -0.13905,0.0315 -0.21758,0.0817 -0.31152,0.14795 -0.46804,0.23822 -0.31304,0.18053 -0.73114,0.4284 -0.82275,0.47171 -0.66187,0.31289 -1.79983,0.80492 -2.50654,1.11448 -2.0554,0.87295 -4.25185,1.30541 -6.50326,1.52901 -0.1788,4.1e-4 -0.2982,0.003 -0.45387,0.005 0.40737,0.016 0.88516,-0.003 1.52848,-0.005 2.25141,-0.2236 4.44785,-0.65606 6.50326,-1.52901 0.70671,-0.30956 1.84467,-0.80159 2.50654,-1.11448 0.0916,-0.0433 0.50971,-0.29118 0.82275,-0.47171 0.15652,-0.0903 0.25045,-0.15649 0.46804,-0.23822 0.0264,-0.01 0.0989,-0.0198 0.13905,-0.0315 0.31058,-0.24574 0.57698,-0.53752 0.87836,-0.79336 z m -6.38794,-35.249876 c 0.44291,-0.086 0.8874,-0.16259 1.33224,-0.23717 0.20253,-0.19001 0.40207,-0.38318 0.62073,-0.55619 0.0401,-0.0117 0.11261,-0.0216 0.13905,-0.0315 0.21758,-0.0817 0.31152,-0.14795 0.46804,-0.23822 0.31304,-0.18053 0.73114,-0.4284 0.82275,-0.47171 0.66187,-0.31289 1.79983,-0.80492 2.50654,-1.11448 2.0554,-0.87295 4.25185,-1.30541 6.50326,-1.52901 0.1788,-4.1e-4 0.2982,-0.003 0.45387,-0.005 -0.40737,-0.016 -0.88516,0.003 -1.52848,0.005 -2.25141,0.2236 -4.44785,0.65606 -6.50326,1.52901 -0.70671,0.30956 -1.84467,0.80159 -2.50654,1.11448 -0.0916,0.0433 -0.50971,0.29118 -0.82275,0.47171 -0.15652,0.0903 -0.25045,0.15649 -0.46804,0.23822 -0.0264,0.01 -0.0989,0.0198 -0.13905,0.0315 -0.31058,0.24574 -0.57698,0.53752 -0.87836,0.79336 z m -8.79508,39.687876 c -0.20289,0.15333 -0.42115,0.28076 -0.62074,0.43866 -0.12079,0.12622 -0.23582,0.25404 -0.34421,0.37989 0.12039,0.1917 0.21775,0.24583 0.18418,0.20516 l 0.11071,0.13643 0.15689,0.0813 c 0.81258,0.4247 1.59128,0.41995 2.25101,0.35628 -0.3775,-0.0446 -0.77241,-0.14513 -1.1764,-0.35628 l -0.15689,-0.0813 -0.11071,-0.13643 c 0.0431,0.0522 -0.12941,-0.0434 -0.28965,-0.39878 -0.10072,-0.22325 -0.0167,-0.41183 -0.004,-0.62493 z m 23.9781,-44.125876 c 0.20289,-0.15333 0.42115,-0.28076 0.62074,-0.43866 0.12079,-0.12622 0.23582,-0.25404 0.34421,-0.37989 -0.12039,-0.1917 -0.21775,-0.24583 -0.18418,-0.20516 l -0.11071,-0.13643 -0.15689,-0.0813 c -0.81258,-0.4247 -1.59128,-0.41995 -2.25101,-0.35628 0.3775,0.0446 0.77241,0.14513 1.1764,0.35628 l 0.15689,0.0813 0.11071,0.13643 c -0.0431,-0.0522 0.12941,0.0434 0.28965,0.39878 0.10072,0.22325 0.0167,0.41183 0.004,0.62493 z m -20.34501,45.635476 c -0.45913,0.0362 -1.04213,0.14947 -1.68746,0.10809 -0.62735,0.11189 -1.25612,0.21864 -1.89736,0.29226 -0.45461,0.005 -0.8698,0.0518 -1.23884,0.0887 0.0189,0.007 0.0389,0.0141 0.0624,0.0184 0.52106,0.0952 1.30627,-0.0969 2.25101,-0.10704 0.84997,-0.0976 1.67981,-0.24858 2.51021,-0.40035 z m 16.71192,-47.145076 c 0.45913,-0.0362 1.04213,-0.14947 1.68746,-0.10809 0.62735,-0.11189 1.25612,-0.21864 1.89736,-0.29226 0.45461,-0.005 0.8698,-0.0518 1.23884,-0.0887 -0.0189,-0.007 -0.0389,-0.0141 -0.0624,-0.0184 -0.52106,-0.0952 -1.30627,0.0969 -2.25101,0.10704 -0.84997,0.0976 -1.67981,0.24858 -2.51021,0.40035 z"
           id="path1458"
           inkscape:connector-curvature="0"
           inkscape:original-d="m 162.60977,55.665967 c -1.11142,-0.0085 -2.2964,0.06414 -3.46204,0.495326 -0.93077,0.344307 -2.04577,1.034721 -3.06955,1.699538 -1.02379,0.664816 -1.95791,1.323862 -2.19329,1.475486 l -0.0813,0.05352 -0.0677,0.06769 c -0.36497,0.370928 -0.79291,0.75301 -1.20579,1.227298 -0.43494,0.499639 -0.80714,1.015877 -1.168,1.499099 -0.901,1.206502 -1.50903,2.078269 -2.27253,3.443152 -0.71535,1.278841 -1.52692,3.039113 -2.12402,4.291605 l -0.004,0.0079 -0.004,0.01 c -1.08327,2.421982 -2.01444,4.91264 -2.85967,7.422557 -0.71321,2.117892 -0.89582,2.891583 -1.59407,4.954316 -0.26912,0.79501 -0.56595,1.593196 -0.85475,2.407373 -2.2e-4,5.96e-4 2e-4,0.0015 0,0.0021 -1.05566,2.635369 -2.00764,5.286767 -3.22697,7.740006 -0.63271,1.272969 -0.76016,1.423774 -1.4991,2.63195 -0.3007,0.471183 -0.69222,0.860108 -1.02739,1.300756 -2.54157,0.395689 -5.08169,0.81445 -7.59518,1.473388 l -0.008,0.0021 -0.008,0.0021 c -2.19616,0.621429 -4.4625,1.222545 -6.6654,2.137673 -2.32557,0.96611 -4.47319,2.35471 -6.43557,3.91277 l -0.0456,0.0362 -0.0399,0.0394 c -0.36251,0.37499 -0.84088,0.8484 -1.1423,1.51536 -0.30142,0.66695 -0.28911,1.66538 0.32375,2.4016 l 0.0892,0.10494 0.11701,0.0735 c 0.23826,0.15004 0.5555,0.36272 1.01112,0.44601 0.50213,0.0918 0.96472,0.0797 1.38209,0.0414 -0.10136,-0.0109 -0.20278,-0.0223 -0.30748,-0.0414 -0.45562,-0.0833 -0.77286,-0.29597 -1.01112,-0.44601 l -0.11701,-0.0735 -0.0892,-0.10494 c -0.61286,-0.73622 -0.62517,-1.73465 -0.32375,-2.4016 0.30142,-0.66696 0.77979,-1.14037 1.1423,-1.51536 l 0.0399,-0.0394 0.0457,-0.0362 c 1.96237,-1.55806 4.10999,-2.94666 6.43557,-3.91277 2.2029,-0.915128 4.46924,-1.516244 6.6654,-2.137673 l 0.008,-0.0021 0.008,-0.0021 c 2.51349,-0.658938 5.05361,-1.077699 7.59518,-1.473388 0.33517,-0.440648 0.72669,-0.829573 1.02738,-1.300756 0.73894,-1.208176 0.8664,-1.358981 1.4991,-2.63195 1.21934,-2.453239 2.17132,-5.104637 3.22697,-7.740006 2e-4,-6.07e-4 -2.1e-4,-0.0015 0,-0.0021 0.28881,-0.814177 0.58564,-1.612363 0.85476,-2.407373 0.69825,-2.062733 0.88085,-2.836424 1.59407,-4.954316 0.84523,-2.509917 1.77639,-5.000575 2.85967,-7.422557 l 0.004,-0.01 0.004,-0.0079 c 0.59711,-1.252492 1.40868,-3.012764 2.12403,-4.291605 0.76349,-1.364883 1.37153,-2.23665 2.27253,-3.443152 0.36086,-0.483222 0.73305,-0.99946 1.168,-1.499099 0.41287,-0.474288 0.84082,-0.85637 1.20579,-1.227298 l 0.0677,-0.06769 0.0813,-0.05352 c 0.23539,-0.151624 1.16951,-0.81067 2.19329,-1.475486 1.02379,-0.664817 2.13931,-1.355231 3.07008,-1.699538 0.92959,-0.343871 1.87028,-0.457935 2.7773,-0.486407 -0.1312,-0.0029 -0.25691,-0.0079 -0.39039,-0.0089 z m 1.0552,1.746236 c -0.20161,-5.37e-4 -0.40049,0.003 -0.59765,0.0094 0.18548,0.0037 0.36908,0.0054 0.55672,0.01102 1.54609,0.119475 2.25546,0.200132 3.37546,1.18952 0.18795,0.198808 0.34817,0.349014 0.414,0.440232 0.31826,0.441008 0.35193,1.1682 0.40088,1.906272 l -0.33634,0.184699 c 0.0393,0.181466 0.0667,0.363206 0.084,0.543077 l 1.32699,-0.727776 c -0.0489,-0.738072 -0.0821,-1.465264 -0.40035,-1.906272 -0.0658,-0.09122 -0.22657,-0.241424 -0.41452,-0.440232 -1.12,-0.989388 -1.82937,-1.070045 -3.37546,-1.18952 -0.3484,-0.01041 -0.6939,-0.01956 -1.03368,-0.02046 z m -2.7201,0.40088 c -0.0535,-0.002 -0.10521,0.0015 -0.15794,0.0016 -0.0685,0.03538 -0.17212,0.103778 -0.2314,0.129603 0.25168,-0.03429 0.50168,-0.07305 0.75558,-0.10022 -0.11138,-0.0098 -0.22355,-0.02039 -0.33266,-0.02886 h -0.0157 z m 0.55776,1.738889 c -0.13346,0.0036 -0.26518,0.01182 -0.39615,0.02309 1.19684,0.103608 2.17855,0.278828 2.98403,0.977012 0.1725,0.176348 0.31164,0.304385 0.35103,0.358902 0.33296,0.460881 0.36046,1.291093 0.30695,2.205358 l -0.002,0.02571 v 0.02571 1.469714 l 1.07461,-0.58925 v -0.880464 -0.02571 l 0.002,-0.02571 c 0.0535,-0.914265 0.026,-1.744477 -0.30696,-2.205358 -0.0394,-0.05452 -0.17852,-0.182554 -0.35103,-0.358902 -0.85861,-0.744238 -1.91398,-0.895135 -3.22067,-0.997475 -0.14942,-0.0055 -0.2965,-0.0065 -0.44181,-0.0026 z m -9.03709,5.740859 c -0.24064,0.376802 -0.52008,0.710113 -0.78444,1.182699 -0.65212,1.165785 -1.45579,2.904053 -2.06054,4.173022 -1.0535,2.355429 -1.96692,4.792802 -2.79985,7.266194 -0.70079,2.08099 -0.88355,2.857453 -1.5946,4.957988 -0.28007,0.827375 -0.57923,1.63203 -0.86262,2.430984 l -0.006,0.01627 -0.006,0.01784 c -1.04446,2.604991 -2.00994,5.312606 -3.29623,7.900567 -0.29542,0.594352 -0.51405,0.905335 -0.71413,1.253532 0.18988,-0.274957 0.43294,-0.504695 0.60919,-0.791263 0.71758,-1.233786 0.79837,-1.308667 1.41199,-2.621977 1.1428,-2.445879 2.01879,-5.083785 3.04227,-7.696456 0.29091,-0.821241 0.58963,-1.621778 0.85633,-2.41944 0.26016,-0.778097 0.49369,-1.587579 0.75559,-2.407373 1.07366,-3.360799 2.22211,-6.730814 3.74433,-9.95376 l 0.002,-0.0058 0.004,-0.0063 c 0.53932,-1.096535 1.10669,-2.198711 1.69849,-3.296758 z m -0.0871,29.601024 c -1.80238,0.01101 -3.58784,0.109876 -5.35152,0.184698 l -0.0163,0.0021 h -0.0178 c -1.77854,0.145378 -3.56028,0.345441 -5.34208,0.548324 -0.0339,0.04406 -0.0692,0.08672 -0.10179,0.132225 2.17377,-0.247498 4.34848,-0.503171 6.51848,-0.680549 h 0.0178 l 0.0163,-0.0021 c 1.68496,-0.07148 3.39016,-0.163195 5.11068,-0.181026 -0.27815,-0.0029 -0.55639,-0.0054 -0.83377,-0.0037 z m 23.58259,0.387235 -2.5779,0.03148 c -1.18714,0.01484 -2.36802,0.03373 -3.54337,0.03358 0.32688,-4.35e-4 0.67549,0.0014 0.99433,5.27e-4 h 0.002 0.002 c 1.20041,0.001 2.40676,-0.01895 3.61946,-0.03411 l 1.4865,-0.01837 z m -22.49014,1.354279 c -0.0736,4.81e-4 -0.14772,0.0029 -0.22143,0.0037 0.75763,0.0083 1.51188,0.03395 2.2615,0.08973 4.7447,0.352926 9.90902,0.370998 14.25482,0.3589 0.0116,1.1e-5 0.023,-5.15e-4 0.0346,-5.24e-4 -4.12195,0.0052 -8.83368,-0.03249 -13.21484,-0.358376 -1.0306,-0.07668 -2.06927,-0.100226 -3.11468,-0.0934 z m -2.57108,0.165283 c -0.96233,0.001 -1.92386,0.01606 -2.88539,0.03568 -0.0931,0.01051 -0.18604,0.02161 -0.27967,0.02938 1.23434,-0.03125 2.46806,-0.05345 3.70289,-0.06034 -0.17919,-6.9e-4 -0.3587,-0.0049 -0.53783,-0.0047 z m 21.01151,0.277047 c -0.3577,0.0027 -0.71214,0.01026 -1.07094,0.01 -0.005,1.6e-5 -0.0111,-1.3e-5 -0.0163,0 l -0.47381,0.370971 c 0.35329,0.0039 0.70681,0.0076 1.05938,0.01154 z m -20.87771,1.422492 c -0.26536,-6.77e-4 -0.53068,9.22e-4 -0.79599,0.0021 1.60686,0.008 3.21489,0.04904 4.82682,0.128029 4.16771,0.204235 7.82933,0.407088 11.98648,0.553571 h 0.0157 0.0157 c 1.17478,-0.0017 2.3554,0.01729 3.54179,0.02991 l 0.30539,0.0021 0.0136,-0.01102 c -0.932,-0.01107 -1.86146,-0.02235 -2.78622,-0.02099 h -0.0157 -0.0157 c -4.15716,-0.146483 -7.81877,-0.349336 -11.98649,-0.553571 -1.70507,-0.08356 -3.40587,-0.125807 -5.10543,-0.130127 z m -17.83964,1.873739 c -0.44291,0.086 -0.8874,0.16259 -1.33224,0.23717 -0.20253,0.19001 -0.40207,0.38318 -0.62073,0.55619 -0.0401,0.0117 -0.11261,0.0216 -0.13905,0.0315 -0.21758,0.0817 -0.31152,0.14795 -0.46804,0.23822 -0.31304,0.18053 -0.73114,0.4284 -0.82275,0.47171 -0.66187,0.31289 -1.79983,0.80492 -2.50654,1.11448 -2.0554,0.87295 -4.25185,1.30541 -6.50326,1.52901 -0.1788,4.1e-4 -0.2982,0.003 -0.45387,0.005 0.40737,0.016 0.88516,-0.003 1.52848,-0.005 2.25141,-0.2236 4.44785,-0.65606 6.50326,-1.52901 0.70671,-0.30956 1.84467,-0.80159 2.50654,-1.11448 0.0916,-0.0433 0.50971,-0.29118 0.82275,-0.47171 0.15652,-0.0903 0.25045,-0.15649 0.46804,-0.23822 0.0264,-0.01 0.0989,-0.0198 0.13905,-0.0315 0.31058,-0.24574 0.57698,-0.53752 0.87836,-0.79336 z m -15.18302,4.438 c -0.20289,0.15333 -0.42115,0.28076 -0.62074,0.43866 -0.12079,0.12622 -0.23582,0.25404 -0.34421,0.37989 0.12039,0.1917 0.21775,0.24583 0.18418,0.20516 l 0.11071,0.13643 0.15689,0.0813 c 0.81258,0.4247 1.59128,0.41995 2.25101,0.35628 -0.3775,-0.0446 -0.77241,-0.14513 -1.1764,-0.35628 l -0.15689,-0.0813 -0.11071,-0.13643 c 0.0431,0.0522 -0.12941,-0.0434 -0.28965,-0.39878 -0.10072,-0.22325 -0.0167,-0.41183 -0.004,-0.62493 z m 3.63309,1.5096 c -0.45913,0.0362 -1.04213,0.14947 -1.68746,0.10809 -0.62735,0.11189 -1.25612,0.21864 -1.89736,0.29226 -0.45461,0.005 -0.8698,0.0518 -1.23884,0.0887 0.0189,0.007 0.0389,0.0141 0.0624,0.0184 0.52106,0.0952 1.30627,-0.0969 2.25101,-0.10704 0.84997,-0.0976 1.67981,-0.24858 2.51021,-0.40035 z" />
        <path
           style="opacity:1;fill:#000000;fill-opacity:1;stroke:#212121;stroke-width:1.71432626;stroke-linecap:round;stroke-miterlimit:4;stroke-dasharray:none;stroke-opacity:1;paint-order:normal"
           id="path833"
           d="m 166.43558,65.080954 c 0.0535,-0.91405 0.0926,-1.95654 -0.46214,-2.7244 -0.13356,-0.18486 -0.31155,-0.32697 -0.46733,-0.49046 -1.07488,-0.93851 -2.37429,-1.09809 -3.70379,-1.20124 -1.34078,-0.0514 -2.52701,0.24585 -3.80073,0.78029 -2.43838,1.96162 -1.64039,0.45767 -1.2931,0.24269 0.52429,-0.32456 1.07159,-0.60405 1.60738,-0.90606 -0.41094,0.38264 -0.75387,0.88649 -1.13968,1.29835 -1.20858,1.29024 -2.59723,2.99773 -3.50362,4.54028 -0.79771,1.35759 -1.45352,2.75982 -2.15103,4.17801 -1.47154,3.11563 -2.59089,6.39931 -3.64494,9.69869 -0.25316,0.79245 -0.48492,1.592896 -0.74855,2.38138 -0.26909,0.804821 -0.56621,1.598459 -0.84932,2.397689 -1.00089,2.552354 -1.86928,5.178514 -3.02726,7.656874 -0.61506,1.31639 -0.72184,1.43865 -1.43294,2.66197 -1.5308,2.49105 -3.56211,4.515663 -5.74583,6.326683 -1.85645,1.37033 -3.86026,2.53462 -5.84358,3.6633 -0.38523,0.21923 -0.79603,0.38203 -1.19723,0.56508 -0.36557,0.1668 -2.12967,0.93603 -2.50039,1.09805 -2.20089,0.89647 -4.5175,1.31338 -6.84596,1.58024 -0.80551,-0.005 -1.65137,0.24222 -2.45702,0.095 -0.33365,-0.061 -0.41667,-0.14677 -0.69324,-0.32093 -0.84073,-1.00997 0.0615,-1.98514 0.7641,-2.71193 1.88814,-1.49911 3.94036,-2.82221 6.13421,-3.73359 2.0993,-0.87209 4.29611,-1.45698 6.46761,-2.07143 5.99126,-1.570673 12.13002,-2.218243 18.26346,-2.719593 2.79074,-0.1184 5.59212,-0.294 8.38251,-0.0864 4.62899,0.34432 9.69688,0.36306 13.97247,0.35116 1.19215,0.001 2.38419,-0.0187 3.57622,-0.0336 l -2.71847,2.12639 c -1.16612,-0.0124 -2.33224,-0.0295 -3.49844,-0.0278 -4.08418,-0.14391 -7.6846,-0.34253 -11.79228,-0.54382 -3.38681,-0.16597 -6.75609,-0.17047 -10.12984,-0.0332 -2.5351,0.18255 -3.5759,0.23027 -6.14099,0.53038 -4.10085,0.479803 -8.16963,1.239713 -12.1749,2.304703 -1.88763,0.5692 -2.93308,0.84953 -4.75288,1.52544 -0.63861,0.23719 -1.27456,0.48506 -1.89724,0.76709 -0.50721,0.22973 -1.8062,1.251 -1.48927,0.76678 0.37456,-0.57227 1.10184,-0.74813 1.68288,-1.06259 0.27556,-0.14914 -0.50823,0.37625 -0.76235,0.56438 -0.33739,0.31854 -1.4238,1.22331 -1.14481,1.84226 0.0363,0.0805 0.11041,0.13371 0.16561,0.20057 0.89144,0.46592 1.96251,0.13512 2.91016,0.14107 2.28254,-0.22459 4.54474,-0.66629 6.68669,-1.57598 0.69177,-0.30306 1.81731,-0.7903 2.49904,-1.11258 0.40495,-0.19143 1.5181,-0.933 1.20588,-0.59581 -0.4634,0.50049 -1.137,0.70918 -1.6794,1.10722 -0.65182,0.47834 2.76389,-1.74187 2.02312,-1.32192 2.21969,-1.75304 4.25357,-3.770153 5.81895,-6.227083 0.72142,-1.17952 0.88153,-1.38499 1.51394,-2.65738 1.23645,-2.48768 2.18101,-5.13334 3.21788,-7.71941 0.28187,-0.794657 0.57508,-1.584747 0.84561,-2.383941 0.69398,-2.05011 0.87372,-2.813282 1.57001,-4.880932 0.82638,-2.45392 1.73432,-4.88052 2.78653,-7.23305 0.59225,-1.24233 1.38992,-2.97016 2.06471,-4.17648 0.73337,-1.31104 1.29819,-2.11605 2.17878,-3.29522 0.36096,-0.48335 0.71531,-0.97425 1.10925,-1.42678 0.36108,-0.41479 0.76794,-0.78049 1.15192,-1.17074 0.59411,-0.38269 3.50168,-2.4839 5.01574,-3.04397 1.32631,-0.49063 2.77361,-0.45107 4.15374,-0.40964 1.57687,0.12159 2.60133,0.2768 3.86221,1.39551 0.17413,0.18901 0.37068,0.35683 0.52238,0.56705 0.58675,0.81305 0.62317,1.84966 0.65815,2.83089 l -3.12259,1.71254 z M 93.56442,100.41703 c -0.0535,0.91405 -0.0926,1.95654 0.46214,2.7244 0.13356,0.18486 0.31155,0.32697 0.46733,0.49046 1.07488,0.93851 2.37429,1.09809 3.70379,1.20124 1.34078,0.0514 2.52701,-0.24585 3.80073,-0.78029 2.43838,-1.96162 1.64039,-0.45767 1.2931,-0.24269 -0.52429,0.32456 -1.07159,0.60405 -1.60738,0.90606 0.41094,-0.38264 0.75387,-0.88649 1.13968,-1.29835 1.20858,-1.29024 2.59723,-2.99773 3.50362,-4.54028 0.79771,-1.35759 1.45352,-2.75982 2.15103,-4.17801 1.47154,-3.11563 2.59089,-6.39931 3.64494,-9.69869 0.25316,-0.79245 0.48492,-1.592896 0.74855,-2.38138 0.26909,-0.804821 0.56621,-1.598459 0.84932,-2.397689 1.00089,-2.552354 1.86928,-5.178514 3.02726,-7.656874 0.61506,-1.31639 0.72184,-1.43865 1.43294,-2.66197 1.5308,-2.49105 3.56211,-4.515663 5.74583,-6.326683 1.85645,-1.37033 3.86026,-2.53462 5.84358,-3.6633 0.38523,-0.21923 0.79603,-0.38203 1.19723,-0.56508 0.36557,-0.1668 2.12967,-0.93603 2.50039,-1.09805 2.20089,-0.89647 4.5175,-1.31338 6.84596,-1.58024 0.80551,0.005 1.65137,-0.24222 2.45702,-0.095 0.33365,0.061 0.41667,0.14677 0.69324,0.32093 0.84073,1.00997 -0.0615,1.98514 -0.7641,2.71193 -1.88814,1.49911 -3.94036,2.82221 -6.13421,3.73359 -2.0993,0.87209 -4.29611,1.45698 -6.46761,2.07143 -5.99126,1.570673 -12.13002,2.218243 -18.26346,2.719593 -2.79074,0.1184 -5.59212,0.294 -8.38251,0.0864 -4.62899,-0.34432 -9.69688,-0.36306 -13.97247,-0.35116 -1.19215,-0.001 -2.38419,0.0187 -3.57622,0.0336 l 2.71847,-2.12639 c 1.16612,0.0124 2.33224,0.0295 3.49844,0.0278 4.08418,0.14391 7.6846,0.34253 11.79228,0.54382 3.38681,0.16597 6.75609,0.17047 10.12984,0.0332 2.5351,-0.18255 3.5759,-0.23027 6.14099,-0.53038 4.10085,-0.479803 8.16963,-1.239713 12.1749,-2.304703 1.88763,-0.5692 2.93308,-0.84953 4.75288,-1.52544 0.63861,-0.23719 1.27456,-0.48506 1.89724,-0.76709 0.50721,-0.22973 1.8062,-1.251 1.48927,-0.76678 -0.37456,0.57227 -1.10184,0.74813 -1.68288,1.06259 -0.27556,0.14914 0.50823,-0.37625 0.76235,-0.56438 0.33739,-0.31854 1.4238,-1.22331 1.14481,-1.84226 -0.0363,-0.0805 -0.11041,-0.13371 -0.16561,-0.20057 -0.89144,-0.46592 -1.96251,-0.13512 -2.91016,-0.14107 -2.28254,0.22459 -4.54474,0.66629 -6.68669,1.57598 -0.69177,0.30306 -1.81731,0.7903 -2.49904,1.11258 -0.40495,0.19143 -1.5181,0.933 -1.20588,0.59581 0.4634,-0.50049 1.137,-0.70918 1.6794,-1.10722 0.65182,-0.47834 -2.76389,1.74187 -2.02312,1.32192 -2.21969,1.75304 -4.25357,3.770153 -5.81895,6.227083 -0.72142,1.17952 -0.88153,1.38499 -1.51394,2.65738 -1.23645,2.48768 -2.18101,5.13334 -3.21788,7.71941 -0.28187,0.794657 -0.57508,1.584747 -0.84561,2.383941 -0.69398,2.05011 -0.87372,2.813282 -1.57001,4.880932 -0.82638,2.45392 -1.73432,4.88052 -2.78653,7.23305 -0.59225,1.24233 -1.38992,2.97016 -2.06471,4.17648 -0.73337,1.31104 -1.29819,2.11605 -2.17878,3.29522 -0.36096,0.48335 -0.71531,0.97425 -1.10925,1.42678 -0.36108,0.41479 -0.76794,0.78049 -1.15192,1.17074 -0.59411,0.38269 -3.50168,2.4839 -5.01574,3.04397 -1.32631,0.49063 -2.77361,0.45107 -4.15374,0.40964 -1.57687,-0.12159 -2.60133,-0.2768 -3.86221,-1.39551 -0.17413,-0.18901 -0.37068,-0.35683 -0.52238,-0.56705 -0.58675,-0.81305 -0.62317,-1.84966 -0.65815,-2.83089 l 3.12259,-1.71254 z"
           inkscape:connector-curvature="0"
           sodipodi:nodetypes="csccccccsccscscccccccccsccscccccscscccccccccccscccccssccccccccsccc"
           inkscape:original-d="m 166.43558,65.080954 c 0.0535,-0.91405 0.0926,-1.95654 -0.46214,-2.7244 -0.13356,-0.18486 -0.31155,-0.32697 -0.46733,-0.49046 -1.07488,-0.93851 -2.37429,-1.09809 -3.70379,-1.20124 -1.34078,-0.0514 -2.52701,0.24585 -3.80073,0.78029 -2.43838,1.96162 -1.64039,0.45767 -1.2931,0.24269 0.52429,-0.32456 1.07159,-0.60405 1.60738,-0.90606 -0.41094,0.38264 -0.75387,0.88649 -1.13968,1.29835 -1.20858,1.29024 -2.59723,2.99773 -3.50362,4.54028 -0.79771,1.35759 -1.45352,2.75982 -2.15103,4.17801 -1.47154,3.11563 -2.59089,6.39931 -3.64494,9.69869 -0.25316,0.79245 -0.48492,1.592896 -0.74855,2.38138 -0.26909,0.804821 -0.56621,1.598459 -0.84932,2.397689 -1.00089,2.552354 -1.86928,5.178514 -3.02726,7.656874 -0.61506,1.31639 -0.72184,1.43865 -1.43294,2.66197 -1.5308,2.49105 -3.56211,4.515663 -5.74583,6.326683 -1.85645,1.37033 -3.86026,2.53462 -5.84358,3.6633 -0.38523,0.21923 -0.79603,0.38203 -1.19723,0.56508 -0.36557,0.1668 -2.12967,0.93603 -2.50039,1.09805 -2.20089,0.89647 -4.5175,1.31338 -6.84596,1.58024 -0.80551,-0.005 -1.65137,0.24222 -2.45702,0.095 -0.33365,-0.061 -0.41667,-0.14677 -0.69324,-0.32093 -0.84073,-1.00997 0.0615,-1.98514 0.7641,-2.71193 1.88814,-1.49911 3.94036,-2.82221 6.13421,-3.73359 2.0993,-0.87209 4.29611,-1.45698 6.46761,-2.07143 5.99126,-1.570673 12.13002,-2.218243 18.26346,-2.719593 2.79074,-0.1184 5.59212,-0.294 8.38251,-0.0864 4.62899,0.34432 9.69688,0.36306 13.97247,0.35116 1.19215,0.001 2.38419,-0.0187 3.57622,-0.0336 l -2.71847,2.12639 v 0 c -1.16612,-0.0124 -2.33224,-0.0295 -3.49844,-0.0278 -4.08418,-0.14391 -7.6846,-0.34253 -11.79228,-0.54382 -3.38681,-0.16597 -6.75609,-0.17047 -10.12984,-0.0332 -2.5351,0.18255 -3.5759,0.23027 -6.14099,0.53038 -4.10085,0.479803 -8.16963,1.239713 -12.1749,2.304703 -1.88763,0.5692 -2.93308,0.84953 -4.75288,1.52544 -0.63861,0.23719 -1.27456,0.48506 -1.89724,0.76709 -0.50721,0.22973 -1.8062,1.251 -1.48927,0.76678 0.37456,-0.57227 1.10184,-0.74813 1.68288,-1.06259 0.27556,-0.14914 -0.50823,0.37625 -0.76235,0.56438 -0.33739,0.31854 -1.4238,1.22331 -1.14481,1.84226 0.0363,0.0805 0.11041,0.13371 0.16561,0.20057 0.89144,0.46592 1.96251,0.13512 2.91016,0.14107 2.28254,-0.22459 4.54474,-0.66629 6.68669,-1.57598 0.69177,-0.30306 1.81731,-0.7903 2.49904,-1.11258 0.40495,-0.19143 1.5181,-0.933 1.20588,-0.59581 -0.4634,0.50049 -1.137,0.70918 -1.6794,1.10722 -0.65182,0.47834 2.76389,-1.74187 2.02312,-1.32192 2.21969,-1.75304 4.25357,-3.770153 5.81895,-6.227083 0.72142,-1.17952 0.88153,-1.38499 1.51394,-2.65738 1.23645,-2.48768 2.18101,-5.13334 3.21788,-7.71941 0.28187,-0.794657 0.57508,-1.584747 0.84561,-2.383941 0.69398,-2.05011 0.87372,-2.813282 1.57001,-4.880932 0.82638,-2.45392 1.73432,-4.88052 2.78653,-7.23305 0.59225,-1.24233 1.38992,-2.97016 2.06471,-4.17648 0.73337,-1.31104 1.29819,-2.11605 2.17878,-3.29522 0.36096,-0.48335 0.71531,-0.97425 1.10925,-1.42678 0.36108,-0.41479 0.76794,-0.78049 1.15192,-1.17074 0.59411,-0.38269 3.50168,-2.4839 5.01574,-3.04397 1.32631,-0.49063 2.77361,-0.45107 4.15374,-0.40964 1.57687,0.12159 2.60133,0.2768 3.86221,1.39551 0.17413,0.18901 0.37068,0.35683 0.52238,0.56705 0.58675,0.81305 0.62317,1.84966 0.65815,2.83089 l -3.12259,1.71254 z" />
        <path
           id="path2610"
           d="m 165.06136,57.694157 c -0.22216,-0.0016 -0.44805,0.0016 -0.67541,0.0088 0.22997,0.005 0.46272,0.0094 0.6842,0.01603 l 0.0196,-5.3e-4 0.0217,0.0021 c 1.60425,0.123701 2.96124,0.364157 4.36511,1.60972 l 0.031,0.02687 0.0295,0.03359 c 0.12766,0.138565 0.35747,0.324827 0.58807,0.644404 0.77927,1.079751 0.78304,2.321721 0.81804,3.302643 l 0.0196,0.527616 -3.79719,2.083075 v 0.580845 l 4.85552,-2.66392 -0.0196,-0.527616 c -0.035,-0.980922 -0.0388,-2.222892 -0.81804,-3.302643 -0.23061,-0.319577 -0.46042,-0.505839 -0.58808,-0.644404 l -0.0294,-0.03359 -0.031,-0.02687 c -1.40386,-1.245563 -2.76086,-1.486019 -4.36511,-1.60972 l -0.0217,-0.0021 -0.0196,5.3e-4 c -0.34543,-0.01037 -0.70225,-0.02201 -1.06712,-0.02479 z M 94.93864,107.80383 c 0.22216,0.002 0.44805,-0.002 0.67541,-0.009 -0.22997,-0.005 -0.46272,-0.009 -0.6842,-0.016 l -0.0196,5.3e-4 -0.0217,-0.002 c -1.60425,-0.1237 -2.96124,-0.36416 -4.36511,-1.60972 l -0.031,-0.0269 -0.0295,-0.0336 c -0.12766,-0.13857 -0.35747,-0.32483 -0.58807,-0.64441 -0.77927,-1.07975 -0.78304,-2.32172 -0.81804,-3.30264 l -0.0196,-0.52762 3.79719,-2.083071 v -0.580845 l -4.85552,2.663916 0.0196,0.52762 c 0.035,0.98092 0.0388,2.22289 0.81804,3.30264 0.23061,0.31958 0.46042,0.50584 0.58808,0.64441 l 0.0294,0.0336 0.031,0.0269 c 1.40386,1.24556 2.76086,1.48602 4.36511,1.60972 l 0.0217,0.002 0.0196,-5.3e-4 c 0.34543,0.0104 0.70225,0.022 1.06712,0.0248 z m 69.04682,-48.3904 c -1.00449,-0.0027 -1.96026,0.06569 -2.79828,0.37569 -0.0583,0.02156 -0.19398,0.116924 -0.26148,0.146243 0.42207,-0.05735 0.84084,-0.124675 1.28209,-0.125574 0.0116,-0.006 0.0291,-0.01749 0.0377,-0.02066 0.67423,-0.249415 1.42569,-0.341037 2.2164,-0.366387 -0.15874,-0.0032 -0.31983,-0.0089 -0.47646,-0.0093 z m -67.97092,46.67112 c 1.00449,0.003 1.96026,-0.0657 2.79828,-0.37569 0.0583,-0.0216 0.19398,-0.11692 0.26148,-0.14624 -0.42207,0.0573 -0.84084,0.12468 -1.28209,0.12558 -0.0116,0.006 -0.0291,0.0175 -0.0377,0.0207 -0.67423,0.24941 -1.42569,0.34103 -2.2164,0.36638 0.15874,0.003 0.31983,0.009 0.47646,0.009 z m 67.4092,-46.275793 c -0.23977,-0.0092 -0.47176,0.0053 -0.70022,0.02945 1.27374,0.111771 2.68186,0.339485 3.87625,1.382345 l 0.0289,0.02532 0.0274,0.02945 c 0.10197,0.107014 0.3179,0.271473 0.54105,0.580327 0.41157,0.569693 0.56787,1.18347 0.62477,1.779219 l 0.97513,-0.5364 c -0.0913,-0.421801 -0.25272,-0.842997 -0.54156,-1.242819 -0.22316,-0.308854 -0.43909,-0.473313 -0.54106,-0.580327 l -0.0274,-0.02945 -0.0289,-0.02532 c -1.29641,-1.131948 -2.84676,-1.305158 -4.20129,-1.41025 l -0.0176,-0.0016 z M 96.57626,105.68923 c 0.23977,0.009 0.47176,-0.005 0.70022,-0.0294 -1.27374,-0.11177 -2.68186,-0.33949 -3.87625,-1.38235 l -0.0289,-0.0253 -0.0274,-0.0294 c -0.10197,-0.10701 -0.3179,-0.27147 -0.54105,-0.58032 -0.41157,-0.5697 -0.56787,-1.18347 -0.62477,-1.77922 l -0.97513,0.5364 c 0.0913,0.4218 0.25272,0.84299 0.54156,1.24282 0.22316,0.30885 0.43909,0.47331 0.54106,0.58032 l 0.0274,0.0294 0.0289,0.0253 c 1.29641,1.13195 2.84676,1.30516 4.20129,1.41025 l 0.0176,0.002 z m 65.27962,-44.168434 c -1.00204,0.02648 -1.9186,0.276633 -2.95383,0.707451 -0.19774,0.155414 -0.32129,0.220337 -0.48214,0.334346 -0.0355,0.03946 -0.0529,0.06385 -0.0899,0.103352 h 0.002 c -1.17458,1.253953 -2.53786,2.937819 -3.39049,4.388879 -0.76888,1.308526 -1.41506,2.685563 -2.11512,4.10931 -2.6e-4,5.29e-4 2.5e-4,0.0016 0,0.0021 -1.44353,3.056634 -2.55341,6.303397 -3.60391,9.591662 -0.24839,0.777521 -0.48085,1.58196 -0.7519,2.392619 -0.27553,0.824061 -0.57552,1.622084 -0.85524,2.411738 l -0.004,0.01394 -0.006,0.01344 c -0.98945,2.523189 -1.86167,5.165617 -3.04839,7.705474 -0.62255,1.332418 -0.76227,1.517523 -1.4671,2.730063 l -0.006,0.0098 -0.006,0.0078 c -0.25621,0.416925 -0.5943,0.747223 -0.87488,1.138949 0.38613,-0.04397 0.77235,-0.08626 1.15859,-0.130225 0.25855,-0.336151 0.54771,-0.639477 0.77463,-1.008724 l 0.006,-0.0078 0.006,-0.0098 c 0.70483,-1.21254 0.84454,-1.397645 1.46709,-2.730063 1.18672,-2.539857 2.05894,-5.182285 3.04839,-7.705474 l 0.006,-0.01344 0.004,-0.01394 c 0.27972,-0.789654 0.57972,-1.587677 0.85525,-2.411738 0.27104,-0.810659 0.5035,-1.615098 0.75189,-2.392619 1.0505,-3.288265 2.16038,-6.535028 3.60391,-9.591662 2.5e-4,-5.29e-4 -2.6e-4,-0.0016 0,-0.0021 0.70006,-1.423747 1.34624,-2.800784 2.11512,-4.10931 0.85263,-1.45106 2.21591,-3.134926 3.39049,-4.388879 h -0.002 c 0.037,-0.0395 0.0544,-0.0639 0.0899,-0.103352 0.16085,-0.114009 0.28492,-0.178932 0.48266,-0.334346 0.89886,-0.374065 1.70814,-0.611185 2.5616,-0.684712 -0.0772,-0.0067 -0.15247,-0.01397 -0.23151,-0.02016 -0.14725,-0.0055 -0.29197,-0.0064 -0.43511,-0.0026 z M 98.14412,103.97719 c 1.00204,-0.0265 1.9186,-0.27663 2.95383,-0.70745 0.19774,-0.15542 0.32129,-0.22034 0.48214,-0.33435 0.0355,-0.0395 0.0529,-0.0639 0.0899,-0.10335 h -0.002 c 1.17458,-1.25395 2.53786,-2.93782 3.39049,-4.38888 0.76888,-1.308526 1.41506,-2.685563 2.11512,-4.10931 2.6e-4,-5.29e-4 -2.5e-4,-0.0016 0,-0.0021 1.44353,-3.056634 2.55341,-6.303397 3.60391,-9.591662 0.24839,-0.777521 0.48085,-1.58196 0.7519,-2.392619 0.27553,-0.824061 0.57552,-1.622084 0.85524,-2.411738 l 0.004,-0.01394 0.006,-0.01344 c 0.98945,-2.523189 1.86167,-5.165617 3.04839,-7.705474 0.62255,-1.332418 0.76227,-1.517523 1.4671,-2.730063 l 0.006,-0.0098 0.006,-0.0078 c 0.25621,-0.416925 0.5943,-0.747223 0.87488,-1.138949 -0.38613,0.04397 -0.77235,0.08626 -1.15859,0.130225 -0.25855,0.336151 -0.54771,0.639477 -0.77463,1.008724 l -0.006,0.0078 -0.006,0.0098 c -0.70483,1.21254 -0.84454,1.397645 -1.46709,2.730063 -1.18672,2.539857 -2.05894,5.182285 -3.04839,7.705474 l -0.006,0.01344 -0.004,0.01394 c -0.27972,0.789654 -0.57972,1.587677 -0.85525,2.411738 -0.27104,0.810659 -0.5035,1.615098 -0.75189,2.392619 -1.0505,3.288265 -2.16038,6.535028 -3.60391,9.591662 -2.5e-4,5.29e-4 2.6e-4,0.0016 0,0.0021 -0.70006,1.423747 -1.34624,2.800784 -2.11512,4.10931 -0.85263,1.45106 -2.21591,3.13493 -3.39049,4.38888 h 0.002 c -0.037,0.0395 -0.0544,0.0639 -0.0899,0.10335 -0.16085,0.11401 -0.28492,0.17893 -0.48266,0.33435 -0.89886,0.37406 -1.70814,0.61118 -2.5616,0.68471 0.0772,0.007 0.15247,0.014 0.23151,0.0202 0.14725,0.005 0.29197,0.006 0.43511,0.003 z m 69.67625,-38.898989 c -0.001,0.01566 7.9e-4,0.03723 0,0.05271 l 0.002,-0.05064 z M 92.17963,100.41978 c 10e-4,-0.0157 -7.9e-4,-0.0372 0,-0.0527 l -0.002,0.0506 z m 76.69907,-35.341579 0.002,0.0021 -0.002,0.05064 c 8e-4,-0.01548 -0.001,-0.03705 0,-0.05271 z m -77.7574,35.341579 -0.002,-0.002 0.002,-0.0506 c -8e-4,0.0155 10e-4,0.037 0,0.0527 z m 61.82607,-33.235247 c -0.23459,0.368179 -0.50592,0.694521 -0.76377,1.155486 -0.64469,1.152496 -1.44075,2.873851 -2.03709,4.124812 l -0.002,0.0021 c -1.03394,2.313832 -1.93009,4.707269 -2.74815,7.136517 -0.69017,2.049473 -0.86965,2.814177 -1.56993,4.882906 -0.27584,0.814848 -0.57047,1.609897 -0.84957,2.396752 l -0.006,0.01551 -0.006,0.0155 c -1.02864,2.565538 -1.97898,5.234723 -3.2458,7.783505 -0.28804,0.579561 -0.50041,0.882501 -0.69556,1.222663 0.1848,-0.268039 0.42004,-0.492294 0.59169,-0.77153 0.70556,-1.213028 0.7851,-1.285484 1.38907,-2.578137 1.12524,-2.408288 1.98851,-5.007864 2.9962,-7.580416 0.28651,-0.808805 0.58071,-1.597221 0.84336,-2.3828 0.25622,-0.766308 0.48827,-1.563532 0.7462,-2.370913 1.05741,-3.309906 2.1864,-6.630421 3.68557,-9.804569 l 0.004,-0.0062 0.002,-0.0057 c 0.52919,-1.075955 1.0859,-2.15796 1.66605,-3.23546 z m -45.89474,31.128918 c 0.23459,-0.368179 0.50592,-0.694521 0.76377,-1.155486 0.64469,-1.152496 1.44075,-2.873851 2.03709,-4.124812 l 0.002,-0.0021 c 1.03394,-2.313832 1.93009,-4.707269 2.74815,-7.136517 0.69017,-2.049473 0.86965,-2.814177 1.56993,-4.882906 0.27584,-0.814848 0.57047,-1.609897 0.84957,-2.396752 l 0.006,-0.01551 0.006,-0.0155 c 1.02864,-2.565538 1.97898,-5.234723 3.2458,-7.783505 0.28804,-0.579561 0.50041,-0.882501 0.69556,-1.222663 -0.1848,0.268039 -0.42004,0.492294 -0.59169,0.77153 -0.70556,1.213028 -0.7851,1.285484 -1.38907,2.578137 -1.12524,2.408288 -1.98851,5.007864 -2.9962,7.580416 -0.28651,0.808805 -0.58071,1.597221 -0.84336,2.3828 -0.25622,0.766308 -0.48827,1.563532 -0.7462,2.370913 -1.05741,3.309906 -2.1864,6.630421 -3.68557,9.804569 l -0.004,0.0062 -0.002,0.0057 c -0.52919,1.075955 -1.0859,2.15796 -1.66605,3.23546 z m 47.93441,-1.987546 c -0.0773,5.29e-4 -0.15425,0.0028 -0.23151,0.0036 0.79204,0.0081 1.58717,0.0347 2.38487,0.09405 4.58513,0.341011 9.63493,0.361741 13.90613,0.34985 h 0.002 c 0.0249,2.2e-5 0.05,-5.29e-4 0.0749,-5.29e-4 -4.05656,0.0052 -8.67746,-0.03345 -12.92479,-0.349334 -1.07564,-0.08002 -2.14664,-0.104519 -3.21169,-0.09767 z M 105.01296,69.172079 c 0.0773,-5.29e-4 0.15425,-0.0028 0.23151,-0.0036 -0.79204,-0.0081 -1.58717,-0.0347 -2.38487,-0.09405 -4.58513,-0.341011 -9.63493,-0.361741 -13.90613,-0.34985 h -0.002 c -0.0249,-2.2e-5 -0.05,5.29e-4 -0.0749,5.29e-4 4.05656,-0.0052 8.67746,0.03345 12.92479,0.349334 1.07564,0.08002 2.14664,0.104519 3.21169,0.09767 z m 73.19747,27.53675 -1.07538,0.01344 -4.9227,3.849381 c 0.2481,0.003 0.49554,0.006 0.74414,0.008 l 0.29869,0.004 z m -96.42086,-27.919674 1.07538,-0.01344 4.9227,-3.849381 c -0.2481,-0.003 -0.49554,-0.006 -0.74414,-0.008 l -0.29869,-0.004 z m 72.15568,29.253441 c -1.71637,0.01122 -3.4511,0.105548 -5.19917,0.179835 -0.14521,0.01188 -0.28839,0.03291 -0.43356,0.04496 0.44432,-0.01119 0.88842,-0.01939 1.33273,-0.02842 0.053,-0.0059 0.10586,-0.01217 0.15917,-0.01654 1.67436,-0.07116 3.33611,-0.158933 4.9816,-0.176216 -0.27977,-0.0031 -0.55998,-0.0055 -0.84077,-0.0036 z m -47.8905,-30.587208 c 1.71637,-0.01122 3.4511,-0.105548 5.19917,-0.179835 0.14521,-0.01188 0.28839,-0.03291 0.43356,-0.04496 -0.44432,0.01119 -0.88842,0.01939 -1.33273,0.02842 -0.053,0.0059 -0.10586,0.01217 -0.15917,0.01654 -1.67436,0.07116 -3.33611,0.158933 -4.9816,0.176216 0.27977,0.0031 0.55998,0.0055 0.84077,0.0036 z m 47.4838,30.74844 c -0.17628,1.93e-4 -0.35241,0.0037 -0.52865,0.0047 1.21423,0.0047 2.42985,0.02659 3.64836,0.0863 4.09984,0.200906 7.68731,0.399653 11.74812,0.543118 1.07469,-0.0016 2.1436,0.01548 3.20859,0.02739 l 0.0155,-0.01188 c -0.7201,-0.0086 -1.44109,-0.01656 -2.16576,-0.01551 -4.06081,-0.143465 -7.64828,-0.342212 -11.74812,-0.543118 -1.39564,-0.06839 -2.78776,-0.09247 -4.17804,-0.09095 z m -47.0771,-30.909672 c 0.17628,-1.93e-4 0.35241,-0.0037 0.52865,-0.0047 -1.21423,-0.0047 -2.42985,-0.02659 -3.64836,-0.0863 -4.09984,-0.200906 -7.68731,-0.399653 -11.74812,-0.543118 -1.07469,0.0016 -2.1436,-0.01548 -3.20859,-0.02739 l -0.0155,0.01188 c 0.7201,0.0086 1.44109,0.01656 2.16576,0.01551 4.06081,0.143465 7.64828,0.342212 11.74812,0.543118 1.39564,0.06839 2.78776,0.09247 4.17804,0.09095 z m 65.646,31.184074 c -0.34154,0.0026 -0.68036,0.0091 -1.02268,0.0093 0.33224,-5.29e-4 0.68668,0.0013 1.01027,5.29e-4 z M 87.89255,67.019754 c 0.34154,-0.0026 0.68036,-0.0091 1.02268,-0.0093 -0.33224,5.29e-4 -0.68668,-0.0013 -1.01027,-5.29e-4 z m 63.65233,32.858389 c -1.67416,-0.0047 -3.34733,0.02801 -5.02192,0.09612 h -0.002 c -2.51801,0.181097 -3.53779,0.228567 -6.07611,0.525547 -0.45013,0.0527 -0.88659,0.19268 -1.33584,0.25218 -0.64831,0.61931 -1.27929,1.2644 -1.96112,1.82987 l -0.0176,0.0155 -0.0191,0.0139 c -1.90693,1.40759 -3.94203,2.58738 -5.92988,3.71864 -0.45435,0.25857 -0.89077,0.42845 -1.26555,0.59945 -0.40904,0.18658 -2.14359,0.94281 -2.51199,1.10381 l -0.01,0.004 -0.01,0.004 c -2.30953,0.94071 -4.70754,1.36762 -7.07244,1.63866 l -0.0506,0.006 h -0.0527 c -0.33789,-0.002 -0.75828,0.077 -1.24076,0.12092 0.94114,0.10061 1.73336,-0.12444 2.29909,-0.12092 h 0.0527 l 0.0506,-0.006 c 2.3649,-0.27104 4.76292,-0.69795 7.07244,-1.63866 l 0.01,-0.004 0.01,-0.004 c 0.3684,-0.161 2.10295,-0.91723 2.51199,-1.10381 0.37478,-0.171 0.81121,-0.34088 1.26556,-0.59945 1.98785,-1.13126 4.02295,-2.31105 5.92987,-3.71864 l 0.0191,-0.0139 0.0176,-0.0155 c 0.68183,-0.56547 1.31281,-1.21056 1.96112,-1.82987 0.44925,-0.0595 0.8857,-0.19952 1.33583,-0.25218 2.53832,-0.29698 3.5581,-0.34445 6.07612,-0.525547 h 0.002 c 1.40996,-0.05734 2.81884,-0.08809 4.22817,-0.09405 -0.0882,-5.29e-4 -0.1764,-0.0019 -0.26458,-0.0021 z M 108.45512,65.619841 c 1.67416,0.0047 3.34733,-0.02801 5.02192,-0.09612 h 0.002 c 2.51801,-0.181097 3.53779,-0.228567 6.07611,-0.525547 0.45013,-0.0527 0.88659,-0.19268 1.33584,-0.25218 0.64831,-0.61931 1.27929,-1.2644 1.96112,-1.82987 l 0.0176,-0.0155 0.0191,-0.0139 c 1.90693,-1.40759 3.94203,-2.58738 5.92988,-3.71864 0.45435,-0.25857 0.89077,-0.42845 1.26555,-0.59945 0.40904,-0.18658 2.14359,-0.94281 2.51199,-1.10381 l 0.01,-0.004 0.01,-0.004 c 2.30953,-0.94071 4.70754,-1.36762 7.07244,-1.63866 l 0.0506,-0.006 h 0.0527 c 0.33789,0.002 0.75828,-0.077 1.24076,-0.12092 -0.94114,-0.10061 -1.73336,0.12444 -2.29909,0.12092 h -0.0527 l -0.0506,0.006 c -2.3649,0.27104 -4.76292,0.69795 -7.07244,1.63866 l -0.01,0.004 -0.01,0.004 c -0.3684,0.161 -2.10295,0.91723 -2.51199,1.10381 -0.37478,0.171 -0.81121,0.34088 -1.26556,0.59945 -1.98785,1.13126 -4.02295,2.31105 -5.92987,3.71864 l -0.0191,0.0139 -0.0176,0.0155 c -0.68183,0.56547 -1.31281,1.21056 -1.96112,1.82987 -0.44925,0.0595 -0.8857,0.19952 -1.33583,0.25218 -2.53832,0.29698 -3.5581,0.34445 -6.07612,0.525547 h -0.002 c -1.40996,0.05734 -2.81884,0.08809 -4.22817,0.09405 0.0882,5.29e-4 0.1764,0.0019 0.26458,0.0021 z m 25.51925,36.104699 c -1.85795,0.36068 -3.74249,0.56741 -5.57588,1.05472 l -0.008,0.002 c -1.87593,0.56528 -2.89464,0.84001 -4.67619,1.50171 -0.63001,0.234 -1.24693,0.47473 -1.84175,0.74414 -0.0441,0.0199 -0.34966,0.21841 -0.59945,0.37724 -0.14156,0.13275 -0.27914,0.25713 -0.40411,0.40205 0.39657,0.0592 0.88847,0.0469 1.50017,0.0382 -0.1558,-0.006 -0.30311,-0.0175 -0.44184,-0.0382 0.12497,-0.14492 0.26255,-0.2693 0.40411,-0.40205 0.24979,-0.15883 0.55539,-0.35728 0.59945,-0.37724 0.59482,-0.26941 1.21174,-0.51014 1.84175,-0.74414 1.78156,-0.6617 2.80026,-0.93643 4.6762,-1.50171 l 0.008,-0.002 c 1.4028,-0.37286 2.8355,-0.5822 4.2633,-0.82114 0.084,-0.0788 0.16629,-0.15891 0.25425,-0.23358 z m -7.94874,-37.951096 c 1.85795,-0.36068 3.74249,-0.56741 5.57588,-1.05472 l 0.008,-0.002 c 1.87593,-0.56528 2.89464,-0.84001 4.67619,-1.50171 0.63001,-0.234 1.24693,-0.47473 1.84175,-0.74414 0.0441,-0.0199 0.34966,-0.21841 0.59945,-0.37724 0.14156,-0.13275 0.27914,-0.25713 0.40411,-0.40205 -0.39657,-0.0592 -0.88847,-0.0469 -1.50017,-0.0382 0.1558,0.006 0.30311,0.0175 0.44184,0.0382 -0.12497,0.14492 -0.26255,0.2693 -0.40411,0.40205 -0.24979,0.15883 -0.55539,0.35728 -0.59945,0.37724 -0.59482,0.26941 -1.21174,0.51014 -1.84175,0.74414 -1.78156,0.6617 -2.80026,0.93643 -4.6762,1.50171 l -0.008,0.002 c -1.4028,0.37286 -2.8355,0.5822 -4.2633,0.82114 -0.084,0.0788 -0.16629,0.15891 -0.25425,0.23358 z m -7.00435,42.322406 c -0.19814,0.14974 -0.4107,0.27525 -0.60565,0.42943 -0.33109,0.34568 -0.65223,0.71412 -0.76739,0.96894 -0.10309,0.228 -0.0757,0.29429 0.0646,0.48265 0.0317,0.0219 0.0875,0.083 0.19896,0.10336 0.26629,0.0486 0.60658,0.0211 0.99942,-0.0176 -0.0723,-0.0268 -0.11473,-0.0683 -0.14004,-0.0858 -0.14034,-0.18836 -0.16769,-0.25465 -0.0646,-0.48265 0.0734,-0.16236 0.2343,-0.37191 0.42427,-0.59118 -0.0341,-0.0542 -0.07,-0.11576 -0.10542,-0.19431 -0.0989,-0.21919 -0.0161,-0.40355 -0.004,-0.61288 z m 21.95744,-46.693716 c 0.19814,-0.14974 0.4107,-0.27525 0.60565,-0.42943 0.33109,-0.34568 0.65223,-0.71412 0.76739,-0.96894 0.10309,-0.228 0.0757,-0.29429 -0.0646,-0.48265 -0.0317,-0.0219 -0.0875,-0.083 -0.19896,-0.10336 -0.26629,-0.0486 -0.60658,-0.0211 -0.99942,0.0176 0.0723,0.0268 0.11473,0.0683 0.14004,0.0858 0.14034,0.18836 0.16769,0.25465 0.0646,0.48265 -0.0734,0.16236 -0.2343,0.37191 -0.42427,0.59118 0.0341,0.0542 0.07,0.11576 0.10542,0.19431 0.0989,0.21919 0.0161,0.40355 0.004,0.61288 z m -18.38711,48.179936 c -0.23586,0.019 -0.50681,0.0576 -0.79944,0.0858 0.0679,0.008 0.13499,0.0153 0.20154,0.0196 0.19918,-0.0354 0.39897,-0.0691 0.5979,-0.10542 z m 14.81678,-49.666156 c 0.23586,-0.019 0.50681,-0.0576 0.79944,-0.0858 -0.0679,-0.008 -0.13499,-0.0153 -0.20154,-0.0196 -0.19918,0.0354 -0.39897,0.0691 -0.5979,0.10542 z"
           style="color:#000000;font-style:normal;font-variant:normal;font-weight:normal;font-stretch:normal;font-size:medium;line-height:normal;font-family:sans-serif;font-variant-ligatures:normal;font-variant-position:normal;font-variant-caps:normal;font-variant-numeric:normal;font-variant-alternates:normal;font-feature-settings:normal;text-indent:0;text-align:start;text-decoration:none;text-decoration-line:none;text-decoration-style:solid;text-decoration-color:#000000;letter-spacing:normal;word-spacing:normal;text-transform:none;writing-mode:lr-tb;direction:ltr;text-orientation:mixed;dominant-baseline:auto;baseline-shift:baseline;text-anchor:start;white-space:normal;shape-padding:0;clip-rule:nonzero;display:inline;overflow:visible;visibility:visible;opacity:1;isolation:auto;mix-blend-mode:normal;color-interpolation:sRGB;color-interpolation-filters:linearRGB;solid-color:#000000;solid-opacity:1;vector-effect:none;fill:#03a9f4;fill-opacity:1;fill-rule:nonzero;stroke:none;stroke-width:1.71432626;stroke-linecap:round;stroke-linejoin:miter;stroke-miterlimit:4;stroke-dasharray:none;stroke-dashoffset:0;stroke-opacity:1;paint-order:normal;color-rendering:auto;image-rendering:auto;shape-rendering:auto;text-rendering:auto;enable-background:accumulate"
           inkscape:original-d="m 165.06136,57.694157 c -0.22216,-0.0016 -0.44805,0.0016 -0.67541,0.0088 0.22997,0.005 0.46272,0.0094 0.6842,0.01603 l 0.0196,-5.3e-4 0.0217,0.0021 c 1.60425,0.123701 2.96124,0.364157 4.36511,1.60972 l 0.031,0.02687 0.0295,0.03359 c 0.12766,0.138565 0.35747,0.324827 0.58807,0.644404 0.77927,1.079751 0.78304,2.321721 0.81804,3.302643 l 0.0196,0.527616 -3.79719,2.083075 v 0.580845 l 4.85552,-2.66392 -0.0196,-0.527616 c -0.035,-0.980922 -0.0388,-2.222892 -0.81804,-3.302643 -0.23061,-0.319577 -0.46042,-0.505839 -0.58808,-0.644404 l -0.0294,-0.03359 -0.031,-0.02687 c -1.40386,-1.245563 -2.76086,-1.486019 -4.36511,-1.60972 l -0.0217,-0.0021 -0.0196,5.3e-4 c -0.34543,-0.01037 -0.70225,-0.02201 -1.06712,-0.02479 z m -1.0759,1.719273 c -1.00449,-0.0027 -1.96026,0.06569 -2.79828,0.37569 -0.0583,0.02156 -0.19398,0.116924 -0.26148,0.146243 0.42207,-0.05735 0.84084,-0.124675 1.28209,-0.125574 0.0116,-0.006 0.0291,-0.01749 0.0377,-0.02066 0.67423,-0.249415 1.42569,-0.341037 2.2164,-0.366387 -0.15874,-0.0032 -0.31983,-0.0089 -0.47646,-0.0093 z m -0.56172,0.395327 c -0.23977,-0.0092 -0.47176,0.0053 -0.70022,0.02945 1.27374,0.111771 2.68186,0.339485 3.87625,1.382345 l 0.0289,0.02532 0.0274,0.02945 c 0.10197,0.107014 0.3179,0.271473 0.54105,0.580327 0.41157,0.569693 0.56787,1.18347 0.62477,1.779219 l 0.97513,-0.5364 c -0.0913,-0.421801 -0.25272,-0.842997 -0.54156,-1.242819 -0.22316,-0.308854 -0.43909,-0.473313 -0.54106,-0.580327 l -0.0274,-0.02945 -0.0289,-0.02532 c -1.29641,-1.131948 -2.84676,-1.305158 -4.20129,-1.41025 l -0.0176,-0.0016 z m -1.56786,1.712039 c -1.00204,0.02648 -1.9186,0.276633 -2.95383,0.707451 -0.19774,0.155414 -0.32129,0.220337 -0.48214,0.334346 -0.0355,0.03946 -0.0529,0.06385 -0.0899,0.103352 h 0.002 c -1.17458,1.253953 -2.53786,2.937819 -3.39049,4.388879 -0.76888,1.308526 -1.41506,2.685563 -2.11512,4.10931 -2.6e-4,5.29e-4 2.5e-4,0.0016 0,0.0021 -1.44353,3.056634 -2.55341,6.303397 -3.60391,9.591662 -0.24839,0.777521 -0.48085,1.58196 -0.7519,2.392619 -0.27553,0.824061 -0.57552,1.622084 -0.85524,2.411738 l -0.004,0.01394 -0.006,0.01344 c -0.98945,2.523189 -1.86167,5.165617 -3.04839,7.705474 -0.62255,1.332418 -0.76227,1.517523 -1.4671,2.730063 l -0.006,0.0098 -0.006,0.0078 c -0.25621,0.416925 -0.5943,0.747223 -0.87488,1.138949 0.38613,-0.04397 0.77235,-0.08626 1.15859,-0.130225 0.25855,-0.336151 0.54771,-0.639477 0.77463,-1.008724 l 0.006,-0.0078 0.006,-0.0098 c 0.70483,-1.21254 0.84454,-1.397645 1.46709,-2.730063 1.18672,-2.539857 2.05894,-5.182285 3.04839,-7.705474 l 0.006,-0.01344 0.004,-0.01394 c 0.27972,-0.789654 0.57972,-1.587677 0.85525,-2.411738 0.27104,-0.810659 0.5035,-1.615098 0.75189,-2.392619 1.0505,-3.288265 2.16038,-6.535028 3.60391,-9.591662 2.5e-4,-5.29e-4 -2.6e-4,-0.0016 0,-0.0021 0.70006,-1.423747 1.34624,-2.800784 2.11512,-4.10931 0.85263,-1.45106 2.21591,-3.134926 3.39049,-4.388879 h -0.002 c 0.037,-0.0395 0.0544,-0.0639 0.0899,-0.103352 0.16085,-0.114009 0.28492,-0.178932 0.48266,-0.334346 0.89886,-0.374065 1.70814,-0.611185 2.5616,-0.684712 -0.0772,-0.0067 -0.15247,-0.01397 -0.23151,-0.02016 -0.14725,-0.0055 -0.29197,-0.0064 -0.43511,-0.0026 z m 5.96449,3.557405 c -0.001,0.01566 7.9e-4,0.03723 0,0.05271 l 0.002,-0.05064 z m 1.05833,0 0.002,0.0021 -0.002,0.05064 c 8e-4,-0.01548 -0.001,-0.03705 0,-0.05271 z m -15.93133,2.106332 c -0.23459,0.368179 -0.50592,0.694521 -0.76377,1.155486 -0.64469,1.152496 -1.44075,2.873851 -2.03709,4.124812 l -0.002,0.0021 c -1.03394,2.313832 -1.93009,4.707269 -2.74815,7.136517 -0.69017,2.049473 -0.86965,2.814177 -1.56993,4.882906 -0.27584,0.814848 -0.57047,1.609897 -0.84957,2.396752 l -0.006,0.01551 -0.006,0.0155 c -1.02864,2.565538 -1.97898,5.234723 -3.2458,7.783505 -0.28804,0.579561 -0.50041,0.882501 -0.69556,1.222663 0.1848,-0.268039 0.42004,-0.492294 0.59169,-0.77153 0.70556,-1.213028 0.7851,-1.285484 1.38907,-2.578137 1.12524,-2.408288 1.98851,-5.007864 2.9962,-7.580416 0.28651,-0.808805 0.58071,-1.597221 0.84336,-2.3828 0.25622,-0.766308 0.48827,-1.563532 0.7462,-2.370913 1.05741,-3.309906 2.1864,-6.630421 3.68557,-9.804569 l 0.004,-0.0062 0.002,-0.0057 c 0.52919,-1.075955 1.0859,-2.15796 1.66605,-3.23546 z m 2.03967,29.141372 c -0.0773,5.29e-4 -0.15425,0.0028 -0.23151,0.0036 0.79204,0.0081 1.58717,0.0347 2.38487,0.09405 4.58513,0.341011 9.63493,0.361741 13.90613,0.34985 h 0.002 c 0.0249,2.2e-5 0.05,-5.29e-4 0.0749,-5.29e-4 -4.05656,0.0052 -8.67746,-0.03345 -12.92479,-0.349334 -1.07564,-0.08002 -2.14664,-0.104519 -3.21169,-0.09767 z m 23.22339,0.382924 -1.07538,0.01344 -4.9227,3.849381 c 0.2481,0.003 0.49554,0.006 0.74414,0.008 l 0.29869,0.004 z m -24.26518,1.333767 c -1.71637,0.01122 -3.4511,0.105548 -5.19917,0.179835 -0.14521,0.01188 -0.28839,0.03291 -0.43356,0.04496 0.44432,-0.01119 0.88842,-0.01939 1.33273,-0.02842 0.053,-0.0059 0.10586,-0.01217 0.15917,-0.01654 1.67436,-0.07116 3.33611,-0.158933 4.9816,-0.176216 -0.27977,-0.0031 -0.55998,-0.0055 -0.84077,-0.0036 z m -0.4067,0.161232 c -0.17628,1.93e-4 -0.35241,0.0037 -0.52865,0.0047 1.21423,0.0047 2.42985,0.02659 3.64836,0.0863 4.09984,0.200906 7.68731,0.399653 11.74812,0.543118 1.07469,-0.0016 2.1436,0.01548 3.20859,0.02739 l 0.0155,-0.01188 c -0.7201,-0.0086 -1.44109,-0.01656 -2.16576,-0.01551 -4.06081,-0.143465 -7.64828,-0.342212 -11.74812,-0.543118 -1.39564,-0.06839 -2.78776,-0.09247 -4.17804,-0.09095 z m 18.5689,0.274402 c -0.34154,0.0026 -0.68036,0.0091 -1.02268,0.0093 0.33224,-5.29e-4 0.68668,0.0013 1.01027,5.29e-4 z m -20.56257,1.399913 c -1.67416,-0.0047 -3.34733,0.02801 -5.02192,0.09612 h -0.002 c -2.51801,0.181097 -3.53779,0.228567 -6.07611,0.525547 -0.45013,0.0527 -0.88659,0.19268 -1.33584,0.25218 -0.64831,0.61931 -1.27929,1.2644 -1.96112,1.82987 l -0.0176,0.0155 -0.0191,0.0139 c -1.90693,1.40759 -3.94203,2.58738 -5.92988,3.71864 -0.45435,0.25857 -0.89077,0.42845 -1.26555,0.59945 -0.40904,0.18658 -2.14359,0.94281 -2.51199,1.10381 l -0.01,0.004 -0.01,0.004 c -2.30953,0.94071 -4.70754,1.36762 -7.07244,1.63866 l -0.0506,0.006 h -0.0527 c -0.33789,-0.002 -0.75828,0.077 -1.24076,0.12092 0.94114,0.10061 1.73336,-0.12444 2.29909,-0.12092 h 0.0527 l 0.0506,-0.006 c 2.3649,-0.27104 4.76292,-0.69795 7.07244,-1.63866 l 0.01,-0.004 0.01,-0.004 c 0.3684,-0.161 2.10295,-0.91723 2.51199,-1.10381 0.37478,-0.171 0.81121,-0.34088 1.26556,-0.59945 1.98785,-1.13126 4.02295,-2.31105 5.92987,-3.71864 l 0.0191,-0.0139 0.0176,-0.0155 c 0.68183,-0.56547 1.31281,-1.21056 1.96112,-1.82987 0.44925,-0.0595 0.8857,-0.19952 1.33583,-0.25218 2.53832,-0.29698 3.5581,-0.34445 6.07612,-0.525547 h 0.002 c 1.40996,-0.05734 2.81884,-0.08809 4.22817,-0.09405 -0.0882,-5.29e-4 -0.1764,-0.0019 -0.26458,-0.0021 z m -17.57051,1.846397 c -1.85795,0.36068 -3.74249,0.56741 -5.57588,1.05472 l -0.008,0.002 c -1.87593,0.56528 -2.89464,0.84001 -4.67619,1.50171 -0.63001,0.234 -1.24693,0.47473 -1.84175,0.74414 -0.0441,0.0199 -0.34966,0.21841 -0.59945,0.37724 -0.14156,0.13275 -0.27914,0.25713 -0.40411,0.40205 0.39657,0.0592 0.88847,0.0469 1.50017,0.0382 -0.1558,-0.006 -0.30311,-0.0175 -0.44184,-0.0382 0.12497,-0.14492 0.26255,-0.2693 0.40411,-0.40205 0.24979,-0.15883 0.55539,-0.35728 0.59945,-0.37724 0.59482,-0.26941 1.21174,-0.51014 1.84175,-0.74414 1.78156,-0.6617 2.80026,-0.93643 4.6762,-1.50171 l 0.008,-0.002 c 1.4028,-0.37286 2.8355,-0.5822 4.2633,-0.82114 0.084,-0.0788 0.16629,-0.15891 0.25425,-0.23358 z m -14.95309,4.37131 c -0.19814,0.14974 -0.4107,0.27525 -0.60565,0.42943 -0.33109,0.34568 -0.65223,0.71412 -0.76739,0.96894 -0.10309,0.228 -0.0757,0.29429 0.0646,0.48265 0.0317,0.0219 0.0875,0.083 0.19896,0.10336 0.26629,0.0486 0.60658,0.0211 0.99942,-0.0176 -0.0723,-0.0268 -0.11473,-0.0683 -0.14004,-0.0858 -0.14034,-0.18836 -0.16769,-0.25465 -0.0646,-0.48265 0.0734,-0.16236 0.2343,-0.37191 0.42427,-0.59118 -0.0341,-0.0542 -0.07,-0.11576 -0.10542,-0.19431 -0.0989,-0.21919 -0.0161,-0.40355 -0.004,-0.61288 z m 3.57033,1.48622 c -0.23586,0.019 -0.50681,0.0576 -0.79944,0.0858 0.0679,0.008 0.13499,0.0153 0.20154,0.0196 0.19918,-0.0354 0.39897,-0.0691 0.5979,-0.10542 z"
           inkscape:connector-curvature="0" />
        <path
           style="opacity:1;fill:#cfd8dc;fill-opacity:1;stroke:none;stroke-width:1.71399999;stroke-linecap:round;stroke-miterlimit:4;stroke-dasharray:none;stroke-opacity:1;paint-order:normal"
           id="path1476"
           d="m 136.39589,86.220505 c 0.21516,-1.502047 0.96689,-2.861759 1.62783,-4.205285 0.91283,-1.723702 1.83312,-3.454571 2.95773,-5.051819 0.21351,-0.231235 0.39041,-0.593614 0.69674,-0.733184 0.44358,-0.202099 0.86936,-0.470291 1.34632,-0.570881 0.0936,-0.01976 0.0894,0.170609 0.11679,0.262319 0.0377,0.126396 0.0516,0.258723 0.0775,0.388083 0.12877,0.83327 0.11293,1.677622 0.19217,2.515568 0.0711,0.75247 0.0827,0.754893 0.19729,1.495549 0.113,0.613984 0.27884,1.218295 0.53909,1.787136 0.12689,0.277331 0.26054,0.551934 0.49696,0.75642 0.11515,0.09959 0.25762,0.162309 0.38642,0.243462 0.60808,0.202112 0.55596,0.21278 1.24974,0.308734 0.28524,0.03945 0.57145,0.08763 0.85941,0.08767 0.77365,1.14e-4 1.62752,-0.155173 2.36093,-0.375695 0.48352,-0.145389 0.94768,-0.348755 1.42152,-0.523132 0.50488,-0.256495 1.02157,-0.490953 1.51463,-0.769479 0.27518,-0.155448 0.5277,-0.34816 0.78608,-0.530167 0.51294,-0.36132 1.03153,-0.715561 1.52766,-1.099646 1.03421,-0.80066 1.74219,-1.477782 2.70632,-2.353706 0,0 0.86447,-0.353182 0.86447,-0.353182 -0.97258,0.881898 -1.68962,1.564751 -2.72977,2.374154 -1.68646,1.312336 -3.52194,2.43477 -5.45438,3.345947 -0.49115,0.182224 -0.97252,0.393414 -1.47346,0.546674 -0.77089,0.235847 -1.66894,0.407189 -2.4826,0.421362 -0.29945,0.0052 -0.59804,-0.03849 -0.89549,-0.07353 -0.25306,-0.02981 -0.50659,-0.06334 -0.75483,-0.120886 -0.19911,-0.04616 -0.38881,-0.126217 -0.58322,-0.189322 -0.13864,-0.09122 -0.29318,-0.161963 -0.41593,-0.273654 -0.23423,-0.213137 -0.37475,-0.521335 -0.49209,-0.8056 -0.24293,-0.588532 -0.39117,-1.211636 -0.5041,-1.836349 -0.099,-0.65424 -0.13415,-0.839761 -0.20523,-1.500542 -0.088,-0.817917 -0.10029,-1.64583 -0.26843,-2.453598 -0.0329,-0.115255 -0.0587,-0.232777 -0.0987,-0.34577 -0.20773,-0.586952 -0.55984,0.20829 0.98083,-0.844124 0.0661,-0.04519 -0.15105,0.05817 -0.21644,0.104439 -0.23847,0.16873 -0.4128,0.402844 -0.60168,0.62045 -1.21183,1.581894 -2.20306,3.318084 -3.10377,5.092724 -0.34454,0.733221 -0.59965,1.24346 -0.89376,1.988132 -0.2566,0.649687 -0.49025,1.331857 -0.49157,2.038429 0,0 -1.24095,0.632296 -1.24095,0.632296 z m -12.79178,-6.943026 c -0.21516,1.502047 -0.96689,2.861759 -1.62783,4.205285 -0.91283,1.723702 -1.83312,3.454571 -2.95773,5.051819 -0.21351,0.231235 -0.39041,0.593614 -0.69674,0.733184 -0.44358,0.202099 -0.86936,0.470291 -1.34632,0.570881 -0.0936,0.01976 -0.0894,-0.170609 -0.11679,-0.262319 -0.0377,-0.126396 -0.0516,-0.258723 -0.0775,-0.388083 -0.12877,-0.83327 -0.11293,-1.677622 -0.19217,-2.515568 -0.0711,-0.75247 -0.0827,-0.754893 -0.19729,-1.495549 -0.113,-0.613984 -0.27884,-1.218295 -0.53909,-1.787136 -0.12689,-0.277331 -0.26054,-0.551934 -0.49696,-0.75642 -0.11515,-0.09959 -0.25762,-0.162309 -0.38642,-0.243462 -0.60808,-0.202112 -0.55596,-0.21278 -1.24974,-0.308734 -0.28524,-0.03945 -0.57145,-0.08763 -0.85941,-0.08767 -0.77365,-1.14e-4 -1.62752,0.155173 -2.36093,0.375695 -0.48352,0.145389 -0.94768,0.348755 -1.42152,0.523132 -0.50488,0.256495 -1.02157,0.490953 -1.51463,0.769479 -0.27518,0.155448 -0.5277,0.34816 -0.78608,0.530167 -0.51294,0.36132 -1.03153,0.715561 -1.52766,1.099646 -1.03421,0.80066 -1.74219,1.477782 -2.70632,2.353706 0,0 -0.86447,0.353182 -0.86447,0.353182 0.97258,-0.881898 1.68962,-1.564751 2.72977,-2.374154 1.68646,-1.312336 3.52194,-2.43477 5.45438,-3.345947 0.49115,-0.182224 0.97252,-0.393414 1.47346,-0.546674 0.77089,-0.235847 1.66894,-0.407189 2.4826,-0.421362 0.29945,-0.0052 0.59804,0.03849 0.89549,0.07353 0.25306,0.02981 0.50659,0.06334 0.75483,0.120886 0.19911,0.04616 0.38881,0.126217 0.58322,0.189322 0.13864,0.09122 0.29318,0.161963 0.41593,0.273654 0.23423,0.213137 0.37475,0.521335 0.49209,0.8056 0.24293,0.588532 0.39117,1.211636 0.5041,1.836349 0.099,0.65424 0.13415,0.839761 0.20523,1.500542 0.088,0.817917 0.10029,1.64583 0.26843,2.453598 0.0329,0.115255 0.0587,0.232777 0.0987,0.34577 0.20773,0.586952 0.55984,-0.20829 -0.98083,0.844124 -0.0661,0.04519 0.15105,-0.05817 0.21644,-0.104439 0.23847,-0.16873 0.4128,-0.402844 0.60168,-0.62045 1.21183,-1.581894 2.20306,-3.318084 3.10377,-5.092724 0.34454,-0.733221 0.59965,-1.24346 0.89376,-1.988132 0.2566,-0.649687 0.49025,-1.331857 0.49157,-2.038429 0,0 1.24095,-0.632296 1.24095,-0.632296 z"
           inkscape:connector-curvature="0"
           inkscape:original-d="m 136.39589,86.220505 c 0.21516,-1.502047 0.96689,-2.861759 1.62783,-4.205285 0.91283,-1.723702 1.83312,-3.454571 2.95773,-5.051819 0.21351,-0.231235 0.39041,-0.593614 0.69674,-0.733184 0.44358,-0.202099 0.86936,-0.470291 1.34632,-0.570881 0.0936,-0.01976 0.0894,0.170609 0.11679,0.262319 0.0377,0.126396 0.0516,0.258723 0.0775,0.388083 0.12877,0.83327 0.11293,1.677622 0.19217,2.515568 0.0711,0.75247 0.0827,0.754893 0.19729,1.495549 0.113,0.613984 0.27884,1.218295 0.53909,1.787136 0.12689,0.277331 0.26054,0.551934 0.49696,0.75642 0.11515,0.09959 0.25762,0.162309 0.38642,0.243462 0.60808,0.202112 0.55596,0.21278 1.24974,0.308734 0.28524,0.03945 0.57145,0.08763 0.85941,0.08767 0.77365,1.14e-4 1.62752,-0.155173 2.36093,-0.375695 0.48352,-0.145389 0.94768,-0.348755 1.42152,-0.523132 0.50488,-0.256495 1.02157,-0.490953 1.51463,-0.769479 0.27518,-0.155448 0.5277,-0.34816 0.78608,-0.530167 0.51294,-0.36132 1.03153,-0.715561 1.52766,-1.099646 1.03421,-0.80066 1.74219,-1.477782 2.70632,-2.353706 0,0 0.86447,-0.353182 0.86447,-0.353182 v 0 c -0.97258,0.881898 -1.68962,1.564751 -2.72977,2.374154 -1.68646,1.312336 -3.52194,2.43477 -5.45438,3.345947 -0.49115,0.182224 -0.97252,0.393414 -1.47346,0.546674 -0.77089,0.235847 -1.66894,0.407189 -2.4826,0.421362 -0.29945,0.0052 -0.59804,-0.03849 -0.89549,-0.07353 -0.25306,-0.02981 -0.50659,-0.06334 -0.75483,-0.120886 -0.19911,-0.04616 -0.38881,-0.126217 -0.58322,-0.189322 -0.13864,-0.09122 -0.29318,-0.161963 -0.41593,-0.273654 -0.23423,-0.213137 -0.37475,-0.521335 -0.49209,-0.8056 -0.24293,-0.588532 -0.39117,-1.211636 -0.5041,-1.836349 -0.099,-0.65424 -0.13415,-0.839761 -0.20523,-1.500542 -0.088,-0.817917 -0.10029,-1.64583 -0.26843,-2.453598 -0.0329,-0.115255 -0.0587,-0.232777 -0.0987,-0.34577 -0.20773,-0.586952 -0.55984,0.20829 0.98083,-0.844124 0.0661,-0.04519 -0.15105,0.05817 -0.21644,0.104439 -0.23847,0.16873 -0.4128,0.402844 -0.60168,0.62045 -1.21183,1.581894 -2.20306,3.318084 -3.10377,5.092724 -0.34454,0.733221 -0.59965,1.24346 -0.89376,1.988132 -0.2566,0.649687 -0.49025,1.331857 -0.49157,2.038429 0,0 -1.24095,0.632296 -1.24095,0.632296 z" />
      </g>
    </g>
  </g>
</svg>
